<svg xmlns="http://www.w3.org/2000/svg" width="24" height="24" viewBox="0 0 24 24">
    <g fill="none" fill-rule="nonzero">
        <circle cx="12" cy="12" r="12" fill="#F0F0F0"/>
        <g fill="#0052B4">
            <path d="M3.083 5.273a11.828 11.828 0 0 0-2.045 4.13h6.176l-4.131-4.13zM23.962 9.403a11.829 11.829 0 0 0-2.045-4.13l-4.13 4.13h6.175zM1.038 15.597a11.829 11.829 0 0 0 2.045 4.13l4.13-4.13H1.038zM19.727 3.083a11.828 11.828 0 0 0-4.13-2.045v6.176l4.13-4.131zM5.273 21.917a11.829 11.829 0 0 0 4.13 2.045v-6.175l-4.13 4.13zM9.403 1.038a11.829 11.829 0 0 0-4.13 2.045l4.13 4.13V1.038zM15.597 23.962a11.829 11.829 0 0 0 4.13-2.045l-4.13-4.13v6.175zM17.787 15.597l4.13 4.13a11.828 11.828 0 0 0 2.045-4.13h-6.175z"/>
        </g>
        <g fill="#D80027">
            <path d="M23.898 10.435H13.565V.102a12.12 12.12 0 0 0-3.13 0v10.333H.102a12.12 12.12 0 0 0 0 3.13h10.333v10.333a12.119 12.119 0 0 0 3.13 0V13.565h10.333a12.119 12.119 0 0 0 0-3.13z"/>
            <path d="M15.13 15.13l5.355 5.355c.247-.246.481-.503.706-.77l-4.585-4.585H15.13zM8.87 15.13l-5.355 5.355c.246.247.503.481.77.706l4.585-4.585V15.13zM8.87 8.87L3.515 3.515a12.03 12.03 0 0 0-.706.77L7.394 8.87H8.87zM15.13 8.87l5.355-5.355a12.015 12.015 0 0 0-.77-.706L15.13 7.394V8.87z"/>
        </g>
    </g>
</svg>
