<svg xmlns="http://www.w3.org/2000/svg" width="24" height="25" viewBox="0 0 24 25">
    <g fill="none" fill-rule="nonzero">
        <path fill="#CD2029" d="M16.153 12.48H24C24 5.587 18.413 0 11.52 0c3.446 0 4.633 6.24 4.633 12.48z"/>
        <path fill="#CD2029" d="M0 12.48h17.28C17.28 6.24 15.593 0 12.219 0 5.47 0 0 5.587 0 12.48z"/>
        <path fill="#F3F4F5" d="M11.52 24.96c6.893 0 12.48-5.588 12.48-12.48h-8.11c0 6.24-.924 12.48-4.37 12.48z"/>
        <path fill="#F3F4F5" d="M17.28 12.48H0c0 6.892 5.47 12.48 12.219 12.48 3.374 0 5.061-6.24 5.061-12.48z"/>
    </g>
</svg>
