<svg xmlns="http://www.w3.org/2000/svg" width="36" height="36" viewBox="0 0 36 36">
    <defs>
        <radialGradient id="a" cx="-2.495%" cy="100.321%" r="184.888%" fx="-2.495%" fy="100.321%">
            <stop offset="0%" stop-color="#F5EC53"/>
            <stop offset="24%" stop-color="#E48244"/>
            <stop offset="40%" stop-color="#D15767"/>
            <stop offset="49%" stop-color="#C84278"/>
            <stop offset="100%" stop-color="#192CFA"/>
        </radialGradient>
    </defs>
    <g fill="none" fill-rule="nonzero">
        <path fill="url(#a)" d="M17.997 36A17.997 17.997 0 0 1 0 17.997C0 8.057 8.058 0 17.997 0A17.997 17.997 0 0 1 36 17.997 17.997 17.997 0 0 1 17.997 36z"/>
        <g fill="#FFF">
            <path d="M17.93 9.87c2.625 0 2.935 0 3.975.055a5.44 5.44 0 0 1 1.825.34 3.255 3.255 0 0 1 1.865 1.865c.217.584.332 1.202.34 1.825C26 15 26 15.305 26 17.93s0 2.935-.055 3.975a5.44 5.44 0 0 1-.34 1.825 3.255 3.255 0 0 1-1.865 1.865 5.44 5.44 0 0 1-1.825.34c-1.035.045-1.345.055-3.975.055s-2.935 0-3.975-.055a5.435 5.435 0 0 1-1.825-.34 3.255 3.255 0 0 1-1.865-1.865 5.445 5.445 0 0 1-.34-1.825c-.045-1.035-.055-1.35-.055-3.975s0-2.935.055-3.975a5.45 5.45 0 0 1 .34-1.825 3.255 3.255 0 0 1 1.865-1.865 5.435 5.435 0 0 1 1.825-.34C15 9.88 15.315 9.87 17.94 9.87m0-1.77c-2.67 0-3 0-4.055.06a7.22 7.22 0 0 0-2.385.455A5.025 5.025 0 0 0 8.615 11.5a7.21 7.21 0 0 0-.455 2.385c-.05 1.05-.06 1.385-.06 4.055s0 3 .06 4.055a7.21 7.21 0 0 0 .455 2.385 5.025 5.025 0 0 0 2.885 2.87 7.22 7.22 0 0 0 2.385.455c1.05.05 1.385.06 4.055.06s3 0 4.055-.06a7.22 7.22 0 0 0 2.385-.455 5.025 5.025 0 0 0 2.875-2.875 7.22 7.22 0 0 0 .45-2.375c.05-1.05.06-1.385.06-4.055s0-3-.06-4.055a7.22 7.22 0 0 0-.46-2.39 5.03 5.03 0 0 0-2.875-2.875A7.22 7.22 0 0 0 22 8.16c-1.05-.05-1.385-.06-4.055-.06"/>
            <path d="M17.93 12.885A5.05 5.05 0 1 0 23 17.93a5.05 5.05 0 0 0-5.05-5.05m0 8.325a3.275 3.275 0 1 1 0-6.55 3.275 3.275 0 0 1 0 6.55M24.36 12.685a1.18 1.18 0 1 1 0-.005"/>
        </g>
    </g>
</svg>
