<svg xmlns="http://www.w3.org/2000/svg" width="36" height="36" viewBox="0 0 36 36">
    <g fill="none" fill-rule="evenodd">
        <path fill="#57F676" fill-rule="nonzero" d="M17.997 36A17.997 17.997 0 0 1 0 17.997C0 8.057 8.058 0 17.997 0A17.997 17.997 0 0 1 36 17.997 17.997 17.997 0 0 1 17.997 36z"/>
        <g fill="#FFF">
            <path d="M27.765 17.435a9.66 9.66 0 0 0-19.3-.175v.42a9.5 9.5 0 0 0 1.385 4.95l-1.755 5.14 5.35-1.7a9.67 9.67 0 0 0 14.32-8.39v-.245zm-9.65 8.3A8.086 8.086 0 0 1 13.65 24.4l-3.12 1 1-3a8 8 0 0 1-1.49-5.5 8.125 8.125 0 0 1 16.17.155c0 .21.025.415.025.63a8.095 8.095 0 0 1-8.125 8.05h.005z"/>
            <path d="M22.535 19.615c-.24-.115-1.4-.685-1.62-.765-.22-.08-.375-.12-.535.12-.16.24-.615.765-.75.92-.135.155-.275.175-.5.06a6.4 6.4 0 0 1-1.905-1.165 7 7 0 0 1-1.315-1.625c-.135-.235 0-.36.105-.5s.235-.275.355-.41l.085-.115a2.63 2.63 0 0 0 .15-.28.425.425 0 0 0 0-.41c-.06-.12-.535-1.275-.735-1.745-.2-.47-.395-.39-.535-.39h-.45a.875.875 0 0 0-.635.295 2.63 2.63 0 0 0-.825 1.96 3 3 0 0 0 .12.8c.177.588.455 1.141.82 1.635.115.155 1.635 2.605 4.04 3.55 2.405.945 2.41.625 2.845.585A2.36 2.36 0 0 0 22.85 21a1.94 1.94 0 0 0 .15-1.115c-.07-.095-.23-.155-.465-.27z"/>
        </g>
    </g>
</svg>
