<svg xmlns="http://www.w3.org/2000/svg" xmlns:xlink="http://www.w3.org/1999/xlink" width="1024" height="369" viewBox="0 0 1024 369">
    <defs>
        <linearGradient id="b" x1="50%" x2="50%" y1="26.092%" y2="100%">
            <stop offset="0%" stop-color="#F85F4A"/>
            <stop offset="100%" stop-color="#EE3124"/>
        </linearGradient>
        <path id="a" d="M0 0h1024v369H0z"/>
    </defs>
    <g fill="none" fill-rule="evenodd">
        <mask id="c" fill="#fff">
            <use xlink:href="#a"/>
        </mask>
        <use fill="url(#b)" xlink:href="#a"/>
        <path fill="#EF5654" d="M0 255h1028v455.83C856.667 795.61 685.333 838 514 838c-171.333 0-342.667-42.39-514-127.17V255z" mask="url(#c)" opacity=".496" transform="matrix(1 0 0 -1 0 1093)"/>
        <g fill="#FFF" mask="url(#c)">
            <path d="M-23.277 424.568c.336.106.301.473.56.639.051.452-.217.394-.412.454-.264-.406.043-.451-.148-1.093zm5.85-3.283c-.245-.219-.345.384-.665-.333.483.47.138-.814.665.333zm.976-1.978l.276.194c-.084.366-.1.26.127.842-.184-.066-.22.113-.517-.146-.104-.535.01-.705.114-.89zm-7.43-35.397c1.334-1.687 3.974.326 2.642 2.01-1.334 1.687-3.974-.326-2.642-2.01zm-.784-5.274c.127.77.486.234.61.697-.597-.164-.484.485-.923.5.01-.39-.042-.747-.354-.962.395.12.354-.26.667-.235zm1.361-.8c.072.373-.022.57-.472.387-.074-.374.02-.571.472-.387zm-.018-.151c.495.214 1.183 1.082.45.965-.107-.344-.444-.564-.45-.965zm.423-.866c.069.288.296.432.285.182a1.586 1.586 0 0 1-.337-.53c.188.118.074-.238.344.01-.024.403.335.529.31.93-.172-.066-.2.098-.438-.068-.009-.147-.436-.594-.164-.524zm9.203 41.178c.267.239.492-.029.681.39-.367-.297-.456.213-.68-.39zm-6.96-43.314l.59.179c.147.488-.677.237-.59-.18zm1.073-.288c.368.218.335-.028.548.01.008.307-.026.564-.4.43-.048-.149-.178-.25-.148-.44zm2.972-1.701c-.46-.024-.467.837-1.044.405.343-.11.423-.833 1.044-.405zm2.934-3.84c.456.512-.299.795-.435.257.203-.012.151-.346.435-.257zm-.356-1.665c.456.284.657.763.956 1.166-.201-.678-.05-1.1.372-.448-.12.426-.377 1.241-1.038.43.576.079-.223-.7-.29-1.148zm1.235-.33c.215.138.394.306.526.512.039.35-.173.899-.517.221.316.205.195-.407-.01-.734zm6.075-9.278c1.334-1.687 3.974.325 2.642 2.01-1.334 1.687-3.974-.326-2.642-2.01zm7.667-1.13c-.027.238-.2.786-.49.325.268.038.027-.634.49-.325zm2.28-2.464c.217.105.334.083.448.057.24.296.308.831.121.934-.48-.151-.541-.561-.568-.991zm16.992-11.96c.122-.155.536.046.597.372-.132-.02-.197.035-.256.07-.078.048-.146.06-.346-.175-.043-.132-.034-.218.005-.268zm4.764-3.447c0 .345-.168.732-.503.275.08-.235.15-.481.503-.275zm3.216-.905c.14.513-.021.624-.488.33-.139-.512.302-.254.488-.33zm2.263-2.308c.167.543-.073.284.286 1.075-.192-.078-.494-.303-.504-.13.032.192.25.252.308.424-.337-.05-.13.652-.832.1-.18-.594.489-.46-.266-.932.098-.507.517-.57 1.008-.537zm1.503-.85c.02.496-.004 1.115-.518 1.3-.239-.185-.049-.631-.497-.693-.1.488.306.667.406 1.032-.275-.134-.3.026-.558-.09-.417-.82-.302-1.132-.65-1.874 1.077.444 1.104.333 1.817.324zm1.498-.535c.32.33.153.63-.393.354.036-.219-.007-.52.393-.354zm2.63-1.27c.135.48-.145.519-.429.55-.022-.36-.051-.729.43-.55zm-.068-4.559c-.066.173.248.617-.314.44-.383-.13-.183-.625.314-.44zm6.174-2.773c.158.522-.099.512-.43.405-.253-.366.061-.564.43-.405zm-52.027 57.501a1.82 1.82 0 0 1 .338-1.29l.368-.485c.282-.373.687-.581 1.135-.656.45-.076.903.097 1.267.36.35.255.601.742.656 1.168.058.446-.07.937-.338 1.29l-.367.486c-.283.372-.687.581-1.135.656-.45.075-.903-.098-1.267-.361-.35-.254-.602-.742-.657-1.168zm8.582 21.702c-1.335 1.688-3.974-.325-2.642-2.01 1.334-1.687 3.974.326 2.642 2.01zm-.743 5.455c-.108-.399.327-.549.557-.07-.2.001-.082.48-.557.07zm7.37-4.767c-.228-.076.092.237-.095.191-.065-.332-.193.07-.49-.227-.122-.348.465-.28.585.036zm-1.99-16.07c-.074-.446.102-.897.369-1.26.257-.349.749-.6 1.178-.656a1.84 1.84 0 0 1 1.297.33l.488.363c.374.28.583.68.657 1.125.073.446-.102.897-.37 1.26-.256.348-.748.6-1.178.656a1.84 1.84 0 0 1-1.297-.33l-.487-.364c-.375-.278-.583-.68-.657-1.124zm-2.09-18.9c1.333-1.687 3.973.326 2.641 2.01-1.334 1.687-3.974-.326-2.642-2.01zm10.396 30.557c-.156-.404.25-.242.353-.384-.1-.05-.251-.073-.261-.17.176.046.282.125.387.206-.13.146-.152.401-.48.348zm-1.181-.09c.28.14.159-.44.547-.11.07.425-.24.724-.547.11zm-.176-.076c-.289-.078-.486-.211-.535-.425.18.042.2-.107.365-.082.015.15.233.189.276.325-.097-.013-.14.04-.106.182zm-1.469.393c-.012-.605.399-.755.951-.753-.022.567-.735.392-.95.753zm.986 1.38c-.424-.96-.065-1.082.235-1.126.126.73.162 1.301-.235 1.125zm-2.173-.49c-.14-.14-.22-.327-.416-.418-.058-.517-.01-.854.441-.505-.173.206-.183.645-.025.923zm5.157-3.286c0 .334-.338.197-.49.32-.16-.56.091-.85.49-.32zm1.244.159c.124.044.306.17.307.046-.126-.08-.138-.235-.15-.392l.321.16c.019.525-.02.389.206.843-.2-.076-.252-.245-.443-.326.014.114.104.178.136.28-.343-.065-.37-.331-.377-.611zm.58-1.514c.015.366.33.54.345.905-.335-.023-.433.278-.791.224-.055-.2-.292-.284-.405-.444.006-.605.372-.721.85-.685zm.206-.598c.11.344.545.463.546.88-.421-.207-.635-.553-.806-.928.127.074.194.063.26.048zm.79 1.958c-.037-.101-.127-.179-.282-.215-.004.139-.015.265-.251.139.254-.28.467-.602 1.003-.558-.276.29-.21.485-.47.634zm.337-1.428c.029-.271.181-.553-.108-.92.472.367.885.769 1.256 1.196-.396-.032-.667.683-1.087.25.279.03.275-.31.448-.416-.25-.144-.271.013-.509-.11zm1.638-1.88c.019.084.041.166.137.196-.038.26-.138.435-.52.206-.08-.43.122-.46.383-.402zm1.034-.784c.366-.104.581-.405 1.046-.374-.057.344.064.65-.035.716-.106-.209-.408-.053-.497-.108.052.199.236.315.302.505-.236.265-.73-.187-.816-.74zm-.403-12.24c-.394-.104.103.545-.11.794-.695-.378-.444-1.633.11-.793zm2.441 11.265c-.03-.404.435-.55.605.105-.426-.405-.065.485-.605-.105zm2.532 1.484c.025-.075-.01-.214.125-.177l.035.543c-.312-.061-.522-.177-.568-.379.162.03.396.135.408.013zm-.004-3.568c.217-.126.404-.81.872-.286.136.405-.386.872-.846.52.383.743-.238.173-.423.26.489.36.477.837.587 1.145-.549-.208-.265-.926-.811-1.133.054.174.196.298.173.521-.073.054-.636-.032-.717-.314.53.103.403-2.15 1.165-.713zm-3.074-13.118c.91-1.296 2.563-.418 2.864.833.007.005.014.007.022.012.057.21.23.337.3.54-.088.093-.193.072-.285.03a1.72 1.72 0 0 1-.31.796l-.049.063c-.006.11.015.247.191.616a.73.73 0 0 1-.404-.383c-1.294 1.16-3.474-.876-2.33-2.507zm3.201 1.156c.43.054.572-.037.203-.705.329.05.3.354.484.508l-.094-.641c.605.387.57.833 1.021.694-.156.243-.467.67-.891.2.05.435-.625.139-.183.836l-.445-.252c-.127-.445.151-.277-.095-.64zm-.037-2.005c-.267-.06-.05.48-.52.168-.234-.499.312-.602.52-.168zm-1.112-10.341c-.026.489.007.502.318.924-.29-.18-.387-.123-.288.177-.56-.342-.505-1.19-.03-1.101zm-2.19-8.814c1.334-1.687 3.974.326 2.642 2.01-1.334 1.687-3.974-.325-2.642-2.01zm6.271 17.33c-.135-.521.117-.549.374-.568.28.356.013.679-.374.567zm1.187.331c-.016.218.214.288.16.53-.752-.434-.612.212-1.079.125-.204-.525.607-.481.92-.655zm.467 1.525c.016-.52-.038-.336-.234-.86.11-.126.38-.519.613.134-.61-.34.207.963-.38.726zm-1.638.355c-.094-.374.085-.489.373-.5.254.253.196.743-.373.5zm-2.391 12.59c-.011-.385.149-.504.481-.356.16.615-.165.477-.481.356zm.07 2.415c.003-.401.218-.494.411-.618-.035.352-.048.739-.41.618zm-.976 1.47c-.173-.134-.41-.221-.476-.436.436.16.463-.023.206-.636.527.503.308.745.27 1.071zm2.292-29.704c.115.426.223.768.54.733-.01.273-.187.289-.492.111-.087-.395-.503-1.043-.048-.844zm4.192 10.26c.254.297.097.731-.383.524.015-.308.091-.542.383-.523zm2.211 1.599c-.762-.213-1.025.713-1.645.314.537-.028.895-1.218 1.645-.314zm2.31 6.468c.078.374-.016.573-.47.397-.078-.375.015-.574.47-.397zm-5.806-20.327l.406.174c.028.44.172 1.02-.277.868-.336-.412.068-.475-.13-1.042zm4.914 12.695c-.63-.082-.36.602-1.02.494.31-.137.491-1.086 1.02-.494zm-4.537-12.796c.813.043.92 1.171.283 1.008-.426-.522.515-.388-.283-1.008zm3.701 9.677c-.426-.105-.537.82-1.122.116.26-.12.648-.671 1.122-.116zm-1.865-9.594c-.328-.144-.376.063-.547-.395.244-.171.466.334.923.45-.138-.671.684-.057.503-.787-.216.01-.279.225-.75-.105-.1-.36.2-.184.034-.63.315.016.545.82.679.46-.013-.344-.528-.357-.474-.746.061-.143.246-.12.489-.02.214.312.212.767.51 1.022.083-.153.397.007.62.043-.684.657-1.388 1.285-2.513 1.353-.328-.892.717.062.526-.645zm5.877 10.306c.07.472-.11.582.517 1.131-1.238-.715-1.27.502-2.177.481.157-.477.77-.833 1.18-1.203-.266-.149-.592-.263-.586-.57.713.686.416.026 1.066.16zm.217.009c-.45-.448-.247.614-.594-.064.065-.226.294-.709.594.064zm-3.425 2.114a.82.82 0 0 0-.183-.517l.284.092c.253.467.57.503 1.011.438-.02.586-.475.22-1.112-.013zm2.19 8.336c-.119-.408.314-.57.555-.078-.319-.172-.039.545-.555.078zm-2.022-9.518c-.55-.205-.566.296-1.06.168-.02-.583.691-.718 1.012-.525-.175-.053-.044.222.048.357zm1.925 9.149c-.223-.7.206-.496.414-.598-.107.243-.041.723-.414.598zm.141 1.694c-.093-.168-.117-.623-.49-.961.017.278-.293.133-.618-.03.086-.437-.074-1.189.487-1.013-.075.73 1.501 2.102.621 2.004zm-1.499-1.85c-.056-.27-.454-.311-.563-.55-.088-.388-.036-.583.315-.364-.045.303.657.874.248.914zm-.97-23.146c-.087.222.342.23.175.488-.708.042-.747-.521-.175-.488zm-1.03-15.417c1.334-1.687 3.974.325 2.642 2.01-1.334 1.687-3.974-.326-2.642-2.01zm5.708 6.12l.292.135c-.004-.086-.003-.165.126-.08.284.574.227 1.1-.27.986-.197-.59.227-.566-.148-1.04zm3.992 2.489c.018.452-.137.597-.459.44-.017-.45.136-.596.459-.44zm-.622-19.405c.42.752-.473.664-.951.625.093-.495.773-.236.95-.625zm4.488 16.526c.154-.015.514.54.619.267.207.63-.16.218-.024.718-.317-.212-.556-.5-.595-.985zm-.112-4.422c.002.3.298.275.022.443-.653-.034-.686-.65-.022-.443zm-1.756-13.043c-.198-.002-.066.512-.46.206-.366-.809.708-.239.46-.206zm4.741 15.691a2.05 2.05 0 0 1 .582-.295c-.037.43-.207.64-.47.697-.143.03-.313.017-.505-.036.151-.16.273-.275.393-.366zm2.037-3.474c.008.2.125.544-.053.5-.02-.09-.046-.177-.158-.207.045.249-.05.313-.208.297-.058-.456.061-.681.419-.59zm-.267-.995l.053.41c-.373-.125-.437.082-.617-.363.298.11.142-.3.564-.047zm-2.985-13.068c.296.368.052.67-.288.586-.366-.45.056-.539.288-.586zm4.038 12.693c-.044.294-.236.431-.377.618-.234-.422-.092-.651.377-.618zm.862 3.22c.096.398-.17.811-.487.332.397.202.083-.544.487-.332zm-.362-3.505c-.243.23-.686.253-1.06.346-.06-.495.61-1.033 1.06-.346zm-3.101-13.724c.145.638-.294.26-.501.282-.08-.521.19-.435.5-.282zm5.14 12.745c.154.394-.124.83-.47.383.425.024-.075-.443.47-.383zm-.03-.23c.478.246.522-.118.6-.432-.32-.279-.582-.604-.62-1.083.253.039.429-.033.81.181.091.445-.251.285-.09.83.376.346.599-.15.933.246-.145-.026-.222.043-.18.28l-.608-.323c.01.727-.382.36-.513.979-.045-.274-.36-.351-.332-.677zm-1.806-13.093c-.493-.123-.4.496-1.135.068 0-.425.706-.6 1.135-.068zm2.852 12.797c-.078-.485.12-.496.543-.126.03.402-.334.132-.543.126zm.953-1.052c.526.2.716.104.57-.29l.45.102c-.07.43-.595.464-.987.615l-.033-.427zm-2.411-12.998c.121.503-.189.388-.452.336-.25-.387.037-.601.452-.336zm3.328 11.602c.355.432.324.028.165-.365.154-.06.276-.006.468.205.023-.64.853-.265.849-.939.324.1.579.755.453.091.37.135.92.81.437.742-.034-.148-.076-.293-.268-.338.727.984-.091 1.073-.214 1.553l-.586-.26c-.166.172.03.802-.466.562-.333-.595.047-.995.399-1.033-.146-.086-.092-.161-.034-.233-.188.081-.64-.167-.769-.012.134.649.175 1.18-.416.913.41-.255.004-.563-.018-.886zm2.788-1.325c.863.699.131-.237.812.394.165-.354.397-1.218.884-.765-.103-.036-.338.273-.07.365.096-.256.332-.321.726-.18.133.479-.218.318-.611.103.061.434-.381.504.042 1.08-.705-.193-.388 1.112-1.335.28.446.65.042.902-.388.74.438-.515-.219-1.188-.06-2.017zm2.466-.767c.48.295.001.567.49.684.004.204-.054.35-.238.37.039-.411-.906-1.033-.252-1.054zm-3.66 4.557c.142-.036.317-.534.573-.011-.094.128-.24.684-.573.011zm.526-8.793c.065.352-.17.808-.487.335.176-.094.112-.505.487-.335zm3.823-7.249c.177.734-.423.345-.49.326.139-.141.025-.603.49-.326zm8.61-2.412c.48.374.052-.41.533-.033.166.478-.288.576-.486.33.158.034-.04-.138-.046-.297zm-8.265 15.352c-.147.28.46.174.313.454-.188-.042-.374-.082-.561-.122-.059-.232.002-.363.248-.332zm1.162-.249c.397.085.186.562-.16.475-.14-.084-.48-.641.16-.475zm-26.9 33.921c.447-.138.69.162.376-.588.193-.152.496.186.658.503.013-.777.808-1.016 1.574-.32-.78-.171-1.086.497-1.105 1.118-.134-.34-.4-.58-.703-.797.304.483.311.532.11.73-.24-.095-.28-.338-.423-.505.296.663.015.27-.166.443.46.34.204.67-.166.44-.261-.371.038-.427-.155-1.024zm.916-2.444c.23.072.165-.288.586.062.004.541.25.904.33 1.389-.222-.135-.39-.19-.483-.138l-.046-.294c-.077-.051-.154-.107-.147-.217.626.287-.25-.52-.24-.802zm2.625 5.568c.153.23-.115.896-.427.513.094-.236.315-.303.427-.513zm-2.698-12.646c1.334-1.687 3.974.326 2.642 2.01-1.334 1.687-3.974-.326-2.642-2.01zm3.225 3.807l-.022-.447.39.077.115.022.006.045c.041.27-.068.416-.49.303zm2.498 2.48c-.248-.424-.373-.822-.391-1.056a.619.619 0 0 1 0-.116c.558.731-.003-.387.528-.08.022.294.031.545.05.79.029.368.081.72.243 1.173-.923-.632-.808.708-1.134 1.082-.093-.225.036-.603-.215-.716.017.402-.239.42-.197.86.135.053.231-.093.352.186-.413-.199-.396.742-.84.155.424.091.265-.905-.293-1.24.473.718-.445.778-.683.479.195-.107.924-.192.312-.799-.024.14-.111.187-.313.075-.006-.75 1.045.334 1.35.358l-.099-.654c.785.315 1.084-.052 1.33-.498zm.56-1.822c-.325-.05-.023.29.019.352l-.526-.105c-.112-.27.249-.565.507-.247zm2.652 9.754c.34.362.132-.182.113-.415.233.128.399.308.467.572-.48-.264-.01.886-.096 1.044-.504-.402-.21-.54-.484-1.2zm-1.936-9.235c.093.584-.35-.16-.593-.06.031-.24.366-.265.593.06zm.593 2.214c-.133-.04-.194.036-.254.113-.061.081-.122.164-.26.121a.806.806 0 0 1 .013-.414c.074-.218.263-.275.501.18zm-.16-1.812c.334.115.384.417.408.735-.565-.322-.488.216-.9.097-.132-.421-.506-.593-.331-.91.388.076.385.412.592.609.063-.195.285-.178.23-.53zm1.156 1.326c.327.578-.444.367-.54.036.217.035.067-.385.54-.036zm-.078-2.544c-.362-.341-.322.483-.567.038.094-.158.183-.943.567-.038zm.753.987c-.148-.297-.473-.472-.683-.725-.092-.378.21-.217.44-.153-.01.275.495.933.243.878zm.318.5l.508.126c.176.436-.233.323-.472.37l-.036-.497zm-.84-.347c-.626-.1-.976-1.153-.437-.968.211.28.51.506.436.968zm-.295 5.077c-.081-.376.01-.573.47-.4.08.375-.012.573-.47.4zm-.06 5.267c-.134-.378.226-.263.092-.643-.367-.089-.442.09-.597-.277.31-.013.712-.474 1.15-.015-.064.383.058.96-.644.935zm-2.797-7.325c.058-.19.144-.923.515-.228-.23-.018-.151.458-.515.228zm1.36 7.07a1.275 1.275 0 0 0-.154-.418c.204.107.423-.212.625.184-.303-.153-.087.511-.471.234zm-.512-1.488c-.172-.168-.254-.622.069-.528-.054.145.19.594-.069.528zm.442 1.578c-.48-.13-.56.37-1.037.242.127-.55.65-.475.953-.75l.084.508zm-3.041-6.578c-.1-.29-.214.058-.438-.144-.026-.386.235-.36.437-.423.122.167.103.491 0 .567zm1.88 7.457c-.021-.181-.334-.191-.378-.36.274.076.174-.298.551-.096.049.281.085.544-.173.456zm-.94 1.845c.231-.253-.323-.73-.102-.922.457-.01.638.757.788.52-.079-.24-.386-.346-.318-.672.372.148.5.442.685.701-.387.082-.38.627-1.053.373zm-.4-1.493c-.112-.527.11-.61.423-.574-.11.23-.052.685-.423.574zm-2.031-8.55c.022.17.43.153.4.35-.193.057-.302.187-.497.244-.03-.301-.283-.526.097-.595zm.094 1.322c.44-.036.33-.556 1.065-.331-.114.365-.617.183-.511.548-.204-.062-.503-.078-.554-.217zm1.886 7.14c-.342-.194-.16.202-.424.268a.922.922 0 0 1-.16-.53c.377.267.248-.115.56.068l.024.193zm-4.501-6.144c.032-.297.143-.504.357-.598.002.205.589-.244.736.375-.427.005-.717.162-1.093.223zm7.058-17.834c.207.144.363.343.436.623-.23-.018-.011.8-.491.317-.124-.576.1-.51.055-.94zm6.075 6.606c.097.826-.975.205-1.276-.458.464.266.577.478 1.276.458zm-2.059-7.683c.069.525-.171.59-.394.678-.05-.498.166-.597.394-.678zm2.937 8.364c.195.037.469.036.497.146-.438-.077.156.531-.494.31l-.003-.456zm.808 1.313c.128.38-.417.155-.587-.042-.039-.433.215-.037.587.042zm.476-2.228c.519.612-.354.691-.888.686.102-.432.469-.586.888-.686zm-1.203-1.394c.257.115.465.26.616.448-.2-.569.121-.76.482-.62.15.057.306.171.435.342-.152-.078-.237-.068-.293-.016-.166.154-.055.684-.624.294.114.577-.093.718-.625.424-.172-.724.406-.112.01-.872zm2.105 2.349c.06.221.033.329-.012.411-.048.085-.115.142-.133.266.103.036.185-.021.267.026.039.022.078.064.12.155l-.024.052c-.179.364-.599.11-1.058-.062-.064-.2-.219-.34-.203-.593.393.079.426.396.68.568-.03-.6.07-.707-.299-1.26.098-.071.196-.008.305.097.105.101.22.24.357.34zm.165-1.242c.372.435.12.72-.352.496-.155-.486.243-.321.352-.496zm1.181-.233c.036.361-.096.564-.42.588.196-.144-.12-.766.42-.588zm.658.312c-.132.04-.315.016-.613-.151-.185-.513.552-.228.613.15zm-.6-2.665c.413.295.62.391.513-.17.243.088.44.203.578.356.122.444-.135.436-.179.68-.501-.3-.576-.09-.812-.073.107-.352-.023-.292-.1-.793zm-.812-7.822c.085.216.186-.063.38.175.019.377-.64.58-1.08.272.626.204.452-.31.7-.447zm2.488 5.89c.1.414-.137.397-.528.18-.1-.413.136-.397.528-.18zm.753 1.514c-.049-.166-.239-.333.1-.194.13.186.217.397.209.664-.603-.157-.505.517-.931.57-.345-.75.236-.716.622-1.04zm-1.107-7.14c.101.416-.136.399-.527.184-.101-.414.134-.399.527-.184zm1.854 9.073c.302.172.128-.46.558-.068.165.544-.371.535-.558.068zm.694-.293c-.034.237.582.166.463.443-.456.046-.858-.4-.463-.443zm1.872-.891c.037.448-.247.407-.442.503-.048-.463-.007-.79.442-.503zm-1.68-10.56c.125.32-.223.235-.098.555-.713-.115-.312-.621.098-.555zm3.44 8.757c.336.16.273-.115.67.114-.02.444-.035.329.096.825-.583-.295-.619.01-1.065-.135-.05-.432.602-.096.3-.804zm2.322-.172c-.64-.244-.389.545-1.06.266-.3-.378.776-.898 1.06-.266zm-1.72-10.723c.103.363-.281.1-.163.484a.89.89 0 0 1-.348-.238c.103-.17.132-.433.51-.246zm1.951 2.979c.153.598-.358.449-.57.02.213.037.205-.344.57-.02zm1.319 2.304c.162.07.15-.087.363.047.378.391.25 1.106-.204 1.013l-.16-1.06zm.978 1.101c-.027-.835-.939-1.864-.289-1.837-.033.546.473 1.94 1.181 1.933.259.346.008.356-.017.594-.504-.51-.49.091-.872.034-.192-.732-.215.15-.715-.366.06-.363.585-.086.712-.358zm-1.128-7.649c.017.384-.197.402-.501.28-.08-.48.082-.583.501-.28zm.8 5.136c.12-.227.145-.61.423-.57.204.763-.184.542-.423.57zm2.069-.884l.049.41c-.22-.128-.504-.217-.624-.405.379.2.197-.203.575-.005zm-.758-3.642c.038.16.082.315.24.377.017-.304-.196-.414-.21-.692.393.202.365.756.547 1.132-.192.028-.425-.561-.39-.253.075.275.31.417.383.692l-.392-.253c-.045-.204-.064-.426-.262-.504-.07-.317-.127-.619.084-.5zm2.577 7.687c.17.45.3-.019.644.308-.231-.738.505-.2.501-.639.524.366.72.406.988.22-.036-.223-.369-.246-.426-.452.888.209.927.806 1.34 1.768-.247-.08-.282-.303-.427-.455.032.223-.344-.092-.345.087.223.096.405.22.535.381.043.45-.363.205.102.676-.132.081-.174.277-.6-.033-.088-.26.138-.256-.062-.408-.173.135-.422.168-.691.172-.056-.509-.111-.098-.406-.319-.178-.489.395.016.304-.357-.592-.42-.607-.078-.989-.222-.179-.144-.881-.667-.468-.727zm-1.2-6.036c-.53.23.294.417-.29.61-.29-.345-.38-.57.29-.61zm2.03 3.274c-.566-.096-.499.454-1.053.372.367-.11.17-.791.78-.65.016.134.23.157.274.278zm-1.149-4.05c.518.622-.637.759-1.033.206.681.367.505-.213 1.033-.206zm1.946 2.995c.213.305.307.849.162.944-.391-.053-.188-.567-.578-.62-.053-.392.087-.5.416-.324zm-1.81-3.102c.282-.054.721.05 1.069.06-.26.223-.314.647-.508.933-.005-.216-.187-.332-.497-.379l-.065-.614zm2.706 4.02l.032.393c-.26-.037-.315-.179-.563-.223-.064-.267.165-.28.531-.17zm.112-1.734c.163.55-.297.57-.583-.026.281.16.246-.232.583.026zm.921 1.287c-.232-.071-.268.144-.592-.061-.13-.512.404-.553.592.06zm-.234-1.653c.042.149.24.203.437.259-.127.386-.93.05-1.026.47-.072-.51.183-.532.59-.73zm2.128 2.264c-.42-.086-.11.206-.382.269.187.19.23.483.328.735a.41.41 0 0 1-.382.27c-.254-.235-.382-.56-.558-.85.26.806-.112.762-.264 1.015-.676-.493-.788-.259-1.32-.311-.207-.575.576-.573.954-.673a.757.757 0 0 1-.384-.42c.284-.204.483-.105.575.285.14-.262.58-1.066 1.433-.32zm-.756-2.305l-.236-.1c.104.316.35.54.56.79-.237-.099-.106.256-.441.031-.073-.864-.6-.048-.863-.592.404.114.425-.748.98-.13zm-.55-.752c.211.05.5.06.538.192-.302-.013.249.416-.51.246l-.027-.438zm-1.797 4.472c-.222.159-.261-.328-.659-.393l-.078-.54c.2.149.398-.12.535.237-.04.155-.297.035-.382.134.105.248.63.216.584.562zm-2.373 1.793c.321.076.632.159.673.388-.113.072-.663-.095-.673-.388zm.413-9.261l.354.128.042.318c.038.205.398.216.393.446-.397-.27-.045.31-.443.04-.062-.343-.326-.563-.346-.932zm.943-.716c-.2.13.094.635-.44.512-.023-.298-.129-.66.44-.512zm1.67-.556l.511.122c.187.434-.226.327-.467.376l-.044-.498zm2.617-2.81c-.37.161-.494.622-.983.636-.033-.612.595-.835.983-.635zm.437 1.42l.48.219c.083.244.275.416.258.727-.647-.596-.324-.005-.746-.038-.045-.272-.457-.292-.528-.546.378-.157.632.34.536-.362zm-1.187.086c.126-.155.044-.577.487-.328.166.529-.085.524-.487.328zm2.463.585c-.224-.01-.304.638-.648-.268.33.334.285-.531.648.268zm-1.635 4.31c.34.41.311.024.158-.352.535.344.517 1.234.053 1.074-.248-.306-.286-.611-.211-.723zm2.752.097c.376.172.521.764.788.55.183 1.021-.806-.236-1.18-.1-.185-.596.66.258.392-.45zm2.363-.062c.526.584.145-.183.485-.08.452.574-.401.821-.485.08zm1.545-.308c.054.14.214.229.173.42-.266-.08-.3.042-.551-.023-.05-.286-.061-.536.378-.397zm-9.25 8.122c.242-.258.952.348.48.41-.031-.201-.509-.178-.48-.41zm-24.307 16.901c.124.469-.124.502-.382.527-.254-.294-.097-.729.382-.527zm.979-.647c-.206.33-.574.459-1.022.489.135-.386.474-.992 1.022-.49zm.477-.372c-.121.206.06.641-.424.57-.004-.301-.081-.658.424-.57zm.52-.207l.077.552c-.407-.308-.141.267-.498.025.02-.35.233-.449.422-.577zm2.935-1.337c.052.188.23.295.293.472-.39-.255-.191.232-.582-.022.004-.267.055-.473.289-.45zm3.283-1.277c-.39.162-.92 1.122-1.637.343.874.272.938-.752 1.637-.343zm-1.773-.292c.186.012.255-.081.55.032-.183.247.185.413-.24.439-.019-.202-.389-.22-.31-.471zm.64-1.788l-.009.475c-.496-.01-.48-.236-.554-.424.238.014.26-.101.562-.051zm1.402 1.813c.569.63.354-.063.866.2.058.582-.546.218-.465.836-.231-.136-.402-.19-.5-.135.074-.457.444-.048.099-.901zm.618-.738c.534.133.919.777.735.947-.395-.226-.654-.533-.735-.947zm.519-1.818c.118.07.473.524-.015.517-.235-.172-.72-.487.015-.517zm2.285 1.638c.263.422-.255.47.118 1.113-.562.01-.108-.55-.496-.637-.343-.073-.027.557-.539.305-.014-.601.508-.634.917-.78zm.088-1.927c.101.412-.354.072-.544.09-.227-.582.226-.243.544-.09zm1.197.167c.022.295-.125.386-.44.273-.017-.162-.094-.285-.172-.408.132-.041.316-.02.612.135zm1.178 2.244c-.105.532-.31.919-1.002.563.14-.481.663-.384 1.002-.563zm-.73-2.928c.323-.074.822.577.751-.186-.257-.403-.55-.032-.75-.662.225-.172.513-.069.963.347.149.856-.27 1.571-.896.96.229.057-.06-.214-.068-.46zm2.393-1.507c.063.222-.275.452.094.714.403.273.405-.438.722.063-.195.135-.297.38-.816.124-.012-.206-.16-.326-.408-.389 0-.332.141-.498.408-.512zm1.673 1.826c-.332-.116-.419-.426-.726-.56-.044-.315.11-.327.196-.442.128.373.428.61.53 1.002zm.274-1.218c.37.487.316.166.655.382-.18.335.312 1.69-.32.958.105-.362-.171-.797-.335-1.34zm.09-1.726c.065.57.305 1.369-.285 1.086-.068-.577-.088-1.089.285-1.086zm-1.709 2.227c.096-.153.286-.15.573.012.259.672-.495.206-.573-.012zm6.133-2.932c.02.224-.497.053-.662-.316.172.081.468-.097.662.316zm1.557-.644c-.268.127-.61.873-1.098.207.257-.23.502-.478 1.098-.207zm3.524-1.774c.162.402.259.745.158.89-.225-.55-.317-.062-.064.22-.282-.162-.398-.462-.537-.744.274-.048.034-.325.443-.366zm-99.744 67.854c-.085-.777.35-.823.433-1.362-.278-.392-.753-.498-.708-.116-.452-.677.289-.613.502-.72.264.261.344.659.314.768.264.284.423.191.762.63-.607-.862.142-.438-.016-1.226-.483-.422-.196.236-.585-.053.144-.162.073-.627.543-.334.187.149-.03.142.042.387.212.135.294-.057.367.187.408.157-.38-.664.203-.263-.288-.282-.625-.53-.682-.954.254-.17.248.308.625.438-.014-.313-.232-.499-.423-.702.065-.091.267.008.202-.263.584.235.435.925.942 1.208-.127-.291-.216-.602-.438-.831-.127-.542.655.188.405-.527.363.096.46.358.747.5-.047-.541.357-.448.636-.533-.352-.742.173-.822.471-.979.289.099-.004.553.41.574-.195-.745.286-.627.593-.919.062-.36-.424-.38-.425-.702.232-.309.468.525.873.563.12-.12.105-.254-.058-.516 1.29.71.656-1.266 1.625-1.007-.287-.756-.096-.732-.037-1.356.084-.08.435.263.585.05.409.44-.128.464-.023.84.545.08.501-.473.471-.978.385-.011.427.292.873.56.112-.273.436-.082.16-.648l.489.245c-.469-.449-.06-1.032.634-.532-.343-.801.023-.608.392-.654-.034-.482-.106-.096-.383-.313-.057-.333.24-.174.31-.33.538.314.397.41.548.76.231-.15.542-.19 1.185.232.037.157-.003.213-.095.194.299.336.654-.176.894-.282-.756.099-1.115-.584-1.781-.406-.1-1.138.987.187 1.248-.225-.316-.401-1.023-.557-1.27-1 .41.265.72-.045 1.196.355-.152-.502-.45-.914-.623-1.407.44.716.673.497 1.12.682.292.187.142.647.55.762-.133-.367-.086-.403-.441-.829.124-.114.58.107.078-.326.162-.098.515.063.829.172.223.286-.46.354.103.903.034-.526.694-2.2 1.28-.94.184-.072.015-.631.417-.4-.441-1.048.643-.72.365-1.884.558.562.583-.06.874.559.29.026-.227-.581-.105-.902.443-.22 1.043-.224 1.036-1.063.435.495.668.108.432-.27.525.4.448-.033.83.17-.278-.276-.363-.228-.768-.625.162-.195.678.025.955.232.346-.096-.27-.653.538-.338-.094-.17-.297-.273-.29-.508-.139.277-.472.285-.907.155.398-.245.833-.439 1.186-.744.102.073.137.188.261.25-.048.296-.67.127-.264.718.496.11.176-.807.986-.48-.032-.188-.061-.373.078-.325a.754.754 0 0 0-.399-.44c-.007-.48.479-.281.496-.723.335.065.34.338.63.432.028-.374-.464-.396-.181-.574.384.116.222.546.504.372.036-.251-.255-.3-.29-.507 1.66.579 1.807-1.218 2.877-1.124.228.13.126.472.307.636.437-.011.108-1.073.984-.484a.769.769 0 0 0-.4-.441c-.144-.412.134-.247.047-.58.256.068.256.3.291.506.344.148.287-.254.554-.213-.037-.16-.237-.219-.384-.31-.131-.395.214-.138.186-.392.134.145.162.358.399.439l-.06-.516c.289.094.294.368.63.433.4-.492.807-.978 1.353-1.271l-.369-.183c.152-.079-.021-.604.292-.461.257.07.258.3.293.507.48.02.67-.84.677-1.12.376.336.57.344.57-.082-.546-.186-.31-.356-.308-.637-.346.508-.959.103-1.308.689.075.213.106.04.246.121.201.492-.387-.099-.185.394-.515-.355-.426-.23-.985-.486.916-.012 1.16-1.369 2.078-1.034-.036-.116-.14-.192-.154-.32.06-.327.22.39.506.372-.248-.985.413-.727.833-.802-.3-.578-.048-.688.26-.72.203.427.293.924.724 1.204-.07.221-.448.252-.155.65.156-.199.229-.115.601.175-.23-.482-.02-.481-.215-.832.07-.263.511-.02.401-.53.725.546.918-.142 1.075-.682.44.565.59.391.554-.214.159.132.274.291.293.508.551.034.433-.843.935-.875-.043-.249-.418-.29-.416-.566-.087-.333.569.345.322-.206a.749.749 0 0 1 .402.44c.233-.029-.4-.513.059-.457.276.102.467.258.524.498.061-.453.924-.269.582-.925.291.092.297.367.632.428-.434-.583.21-.274.2-.265.313-.328-.128-1.155.704-.866-.344-.599.294-.627.474-.858.134.145.163.357.402.438-.296-.723.406-.302.212-1.105-.212-.449-.649-.32-.586-.044-.156-.017-.08-.593.042-.585-.235-.513-.32.05-.46.018-.172-.122-.143-.372-.187-.575.046-.108.744.388.536-.343.304.132.596.268.65.559.444.208.268-.422.8-.094-.138-.281-.439-.567-.205-.704.405.775.376 1.533.273 2.187.224-.052.556.042.815.035-.06-.237-.326-.634.059-.454-.063-.19-.241-.309-.294-.506.048-.41.302.132.724.232-.635-.76.222-1.489.951-.747-.35-.466.227-.147.029-.71-.428-.223-.249.376-.678.151-.258-.354.446-.317.645-.409a1.294 1.294 0 0 1-.204-.704c-.036-.3.344.211.28.378.294.022-.17-.618-.435-.694-.022.219-.324.06-.166.522-.191-.154-.337-.342-.527-.497.045-.437.723-.02.751-.48.33.326.424 1.294.839 1.132-.447-.465-.121-.308-.08-.644.45.536.006.368.633.43-.252-.378-.326-.516-.22-.832.625.654.21-.51.923-.036-.565.525-.623 1.443-1.671 1.484.743.46-.27.61.392 1.277.223.125.242-.029.478.113-.364-.681.421-.527.785-.223-.56-.438-.121-.655-.714-1.07.165-.064.078-.466.43-.277.335.231-.453.248.295.507.205.49-.389-.097-.183.393.221.094.28.285.51.369-.16-.828.295-.402.694-.026-.584-.79.483-.72.672-1.124-.156-.428-.204-.235-.511-.368-.123-.867.905-.671.636-1.384.382.077.299.457.543.624-.268.209-.453.529-.857.552.09.314.276.565.558.754-.072-.24.066-.196.215-.136-.07-.142-.138-.285-.28-.38.724.37 1.087-.73.866-1.394.586 1.037.73.202 1.377.787-.033-.223.048-.29.198-.268-.283-.573-.312.063-.602-.169-.386-.33-.274-.791-.427-1.534.635.353.18.684.486 1.08.538.183.174-.186.272-.595-.256-.159-.363-.417-.544-.624.019-.225.467.13.305-.337-.514-.23-.157.712-.906.167.026.567.006 1.074-.314 1.177-.268-.167.124-.314.181-.395-.132-.345-.426-.212-.307.019.03.039.059.078.093.12a.431.431 0 0 1-.093-.12c-1.238-1.644 1.39-1.214 1.751-2.341-.174-.075-.347-.15-.386-.308-.33-.196-.035.453-.447.146-.23-.246-.07-.868.397-.532-.445-.37-.443-1.26.114-.91.14.059-.01.613-.288.464.493.505.3.622.61 1.14.395.062.427.244.85.288-.223.46-.731.23-.653 1.255.56.294.317.457.883.547-.246-.308-.682-.49-.596-1.012.35-.242.851-.278 1.073-.691-.277-.098-.468-.254-.528-.495-.228.012-.391.112-.55.217-.19-.272-.112-.575-.1-.773.203.055.247.215.28.377.495.05-.328-.589.148-.653.233.268.314.634.577.884-.16-.953 1.088-.733.94-1.721.243.169.271.476.651.556.033-.347.418-.22.24-.852a1.45 1.45 0 0 1-.637-.425c.084-.385.462-.374.472-.858.403.292.64 1.198-.008.84.334.202.344.613.684.811-.282-.804.16-.705.28-1.433-.414-.305-.117.341-.446.148-.338-.467.258-.28.132-.78.219.088.28.282.511.366-.65-1.092.644-.382.56-1.056.676.592-.03.766.274 1.216.119.052.076-.112.09-.199.38.033.149.461.529.495-.028-.41.494-.29.023-.713-.132-.53.496-.043.536-.344.23.219.403.637.067.514.533.62.286-.977 1.03-.11l-.1-.771c-.252-.068-.34-.246-.513-.366.034-.362.31-.01.603.169-.242-.964.616-.467 1.44-.519-.088-.734 1.186-.43 1.354-1.161-.328-.448-.305.043-.584-.037-.3-.546.31-.785.572-.932.445.405-.333.221.087.643.327.103.562.153.741.353-.016-.274-.215-.996-.31-1.473.136-.299.558.366.868.415.175-.023.145-.854.55-.22.018-.557.283-.782.609-.927-.024-.348.077-.72.355-1.075.554-.71 1.337-.763 1.964-.463.135-.31.556-.245.747-.483.23.271.269.664.474.949.343-.016 1.13.577 1.171.074.645.43.927.705 1.457.45-.285-.096-.48.008-.746-.354-.041-.371.22-.343.412-.406-.037-.256-.36-.323-.317-.63-.174.176-.954-.075-.642.416-.197-.198-.42-.38-.44-.69.144-.172.526.44.303-.337.38.031.15.46.529.492-.472-.537-.166-.708.27-.596-.139-.44-.406-.394-.495-.233-.048-.24.114-.201.053-.458.227.178.707.19.762.482.132-.012.058-.821.443-.152.307.058-.365-1.008.109-.911.174.12.147.371.194.572.31-.116 1.19.077.854-.558.018-.13.52-.216.494.232.41-.383.562-1.382-.118-2.582.1-.114.3-.095.303-.338.448.172.286.745.813.865.03.536-.16.287-.424.28-.013.474.173.819.6 1.006-.02-.127-.165-.17-.267-.246.03-.28.017-.612.41-.409.323.181-.14.141.07.515.437.296.088-.448.568-.094-.598-.97.475-.723 1.209-.512-.083-.45-.433-1.186-.832-.995.455.424.109.404-.18.398-.18-.128-.042-.232.09-.199-.411-.363-.722.31-1.118.315.27-.925 1.304-1.364 2.108-1.99a3.09 3.09 0 0 0 .664-.671c.15.09.138.283.177.443.246.043.444.023.284-.467.544.54.277-.061.712.095.322.112-.018.665.442.687-.275-.738.108-.454.623-.548-.201-.578-.24-1.023.498-.607-.15-.547.258-.36.108-.909 1.551.911 1.818-.73 3.265-.754-.34-.394-.362-.9.177-.398.049-.36-.177-.54-.339-.76.04-.087.078-.178.213-.14.19.297.468.533.481.946.487.133-.19-.524.025-.546.044-.004.122.016.258.076-.426-.717-.153-.546.123-.783.275.146.314.45.339.758.118-.842 1.229-.928.722-2.304.091-.375.328-.069.567-.097.363.184.294.65.696.805.002-.377-.23-.597-.465-.816.338-.073.039-.328.141-.655.537.388.685 1.248.43 1.4.218.068.272.24.142.187.772.29 1.727.53 1.508-.86.385.12.136.66.57.745-.219-.65.765-.405 1.065-.705-.016-.222-.192-.342-.197-.571.138.143.17.354.41.431.17-.16-.034-.17-.073-.515.14.094.12.295.286.374.526.232.505-.251.14-.656.148.09.217.075.231-.013.148.09.139.285.18.443.51-.31 1.811-.146 1.595-1.058.875.186.225-.407.782-.237-.294-.913-.032-.903.011-1.554-.313-.163-.355.024-.586-.03-.093-.436.445-.05.406-.413.148.087.14.283.18.443.367-.185.995-.03 1.366-.21.149.088.139.283.18.445.189-.068.451-.042.405-.415-.617-1.129 1.532-.436 1.537-1.45-.735.263-1.411.604-2.215.779.028-.383.396-.322.636-.427-.258-.494-.356.081-.585-.032l-.111-.77c.22.086.284.278.516.36.258-.54-.432-1.386.382-1.383.298.293-.046.626.024.97.186.206.48.334.555.615 0-.207-.621-1.527.15-1.37.224.132.317.353.325.63.475.18-.205-1.077.312-1.055.413.1.235.595.68.672.007-.099-.065-.142-.144-.184-.206-.245.249-.237-.216-.701.154.016.606-.1.155-.527.182-.007.128-.322.443-.155.276.33.17.919.523 1.199.045-.2.116-.475.118-.785.294.086.306.36.643.415.218-.342.64-.421.956-.64.28.147-.114.25.094.645.628.008-.279-1.329.685-.883.04-.157-.243-.732.032-.586-.078-.344-.188.079-.5-.23l-.055-.384c.59.14.625-.442 1.242-.268.381.466-.01.815-.512.483.035.323.019.58-.138.656.148-.147 1.094.257.851-.568.433.135.373.596.805.729-.311-.798.357-1.168.824-1.538.386.255-.079.22.076.512.219-.16.365.228.748.343.07-.466.547-.403.562-.94.837.31.287-.382.379-1.383-.188.21-.244.586-.616.557-.014.198.133.287.287.372-.035.233-.176.327-.425.283-.248-.077-.027-.358.07-.326-.304-.25-1.486-.74-1.282.01-.6-.433-1.16.005-1.33.469-.333-.184-.448-.453-.336.084-1.02-.242-1.672-.012-2.004.636-.514-.623-.687.251-.998-.459.064.25-.132.345-.262.6.225.118.24-.037.48.101-.038.16-.139.236-.173.399-.163-.128-.282-.283-.307-.5-.37-.203-.342.112-.71-.088-.006.192.148.275.18.443-.332-.186-.63-.331-.443.154-.196-.08-.485-.28-.48-.1-.291-.087-.016-.553-.43-.558.352.86-.813 1.153-1.399.792-.36-.087.16.33.075.515-.007.093-.105.07-.086.2-.367-.082-.4-.391-.767-.474.112.822-.968.77-1.608.936.147.434-.059.409-.015.712.584.23-.051-.477.407-.412.1.38.072.273.553.616.126.832-.427.713-.885.31-.12-.433.612.238.425-.284-.245.149-.771-.312-.804-.73-.333.227-.874.185-1.22.394-.3-.577-.186-.337-.641-.416.08-.241.37-.215.816.017-.049-.248-.423-.278-.43-.558-.09.265-.498.118-.654.297.06.335.454.447.783.603-.198.331-.72.244-.687.88.15.273.45.45.57.743-.209.35-.379-.48-.765-.477-.192-.14.026-.139-.055-.384-.803-.43-1.185.45-2.095-.012.033.878-.7.759-1.132 1.029-.513-.38-.028-.606-.396-1.143-.609-.154.081.888-.692.039.142.373.38.683.713.93-.196.475-.644.623-1.187.646.441.794-.134.767-.457.868-.15-.091-.138-.285-.18-.445.014-.157.298.038.48.104 0-.14-.06-.242-.16-.315a81.19 81.19 0 0 0-.037-.257c-.375-.106-.149.572-.798.107-.067-.332.235-.18.3-.338-.32-.544-.494-.03-.71-.092-.259-1.014-.518.131-1.046-.008.245.277.59.856.376 1.013-.222-.572-.5-.38-.942-.918.04.158.002.214-.09.198.497.45.09.624.394 1.144-.141.017-.617-.095-.849.096-.093.078-.148.204-.123.41-.384-.125-.397-.488-.572-.75-.478-.037-.78.116-1.169-.065l.073.513.497.233c-.208-.657.453-.175.655-.293.06.567-.637.142-.6.678-.865-1.14-.95-.099-1.79-.358.253.02.206-.356.547-.223-.344-.477-.643-.013-.797.106.144.282.352.516.463.817-.18.332-.518-.39-.764-.478.076.24-.061.198-.212.141.44.587.19.756-.53.351.633.51.078.257.25.957-.7-.317.031-.703-.712-.934.437.747.092.694.284 1.213-.597-.265-.035-.64-.354-.886-.263.165-.313.207-.125.781-.546-.24.009-.336-.32-.631-.968-.35-.515.52-.78 1.073-.291-.136-.396-.393-.763-.479.099.586-.444.324-.48.733-.257-.203-.336-.524-.566-.746-.064-.225.086-.166.071-.326.322.069.277.378.426.56.246-.306.09-.704.585-.805-.345.001-.826-.177-.904.176-.382-.145.264-.224-.178-.446.384.018.563-.237.887-.3-.05-.156-.26-.204-.285-.374.052-.33.336.313.622.292-.037-.223.045-.29.195-.268-.87-1.174.72-.078.441-.99.381.12.39.596.64.419-.134-.474-.622-.712-.748-1.19-.353-.184-.235.249-.567.094.042.158.243.214.391.302.071.442-.298.306-.532.35-.292-.318.046-.272-.212-.7.162-.205.492-.19.495-.605.38.12.39.596.639.42-.708-1.59 1.196-1.382 1.817-1.906.225.225.172.636.464.818-.743.28-1.627.376-2.193.89.16.399.495.177.317-.212.408.213.555-.021.657.548.12-.193.228-.398.39-.536.234.217.23.594.673.674-.245-.646-.055-.507.265-.595.368.083.288.464.656.548.497-.086.69-.757.633-1.263.116.158.352.236.41.432.049.358-.381-.464-.212.14.55.14.652-.304 1.117-.276a.818.818 0 0 1 .123.017l-.128-.9c.297.178.496.423.889.536-.27-.776-.608-.52-.925-.792-.06-.463.878.383.654-.294.537.208.362.886.961 1.05-.02-.127-.166-.173-.265-.246.155-.597.789-.57 1.29-.716-.093-.544-.75-.724-.89-.534.063-.304-.424-1.324.088-1.037.365.287-.135.255.196.57.425.347.035-.37.46-.026-.157-.438-.393-.47-.233-.827.268.103.411.29.428.56.583.181-.316-.921.246-.725.294.224.14.75.587.873.035-.35-.194-.527-.234-.827.04-.09.077-.178.213-.14.243.294-.05.493.359.885.237-.22.402.114.977.335.76.01.913-.818 1.236-1.1.22.874 1.146-.187 1.723-.157.36.508-.549.256-.334.923.785.168.413-1.05 1.188-.646-.043-.16-.243-.214-.392-.302-.203-.541.255-.223.136-.656 1.106.65.96-.566 1.738-.035.152-.753.836-.44.735-1.336-.216.1-.16-.086-.498-.23.116-.995 1.092-.066 1.724.677-.155-.461-.553-.758-.754-1.188.314-.044.501-.251.903-.18.252.18-.05.372-.02.645.125-.122 1.074-.172 1.105-.385.19.002.58.506.286.373.353.44.218-.134.318-.214-.041-.159-.243-.213-.392-.3.406-.326 1.942.337 2.125-.577l.624.288c-.036-.254.316-.008.173-.4 1.222.679.92-.614 2.096.007.104-.8.86-.759 1.791-.493-.06.49.083.705.045 1.096.506-.381.539-1.386 1.254-.979-.628-.776-.538-1.4-1.37-2.183.345-.075.797-.01 1.152-.07-.668-.806-1.199.355-1.958-.658-.061-.287.434.145.606.158-.414-.608.4-.329.202-.984.207.33.42.657.93.785-.372-.434-.282-.644-.278-1.085.441.244 1.106.503.691-.043.384.117.531.504.749.343.38.277.17.255.201.57.29-.076.59-.141.616-.557.423.186.289.747.72.928-.017-.207-.527-1.002.01-.714-.138-.237-.173-.54-.559-.613.136-.411.152-.298-.133-.898-.142-.39.603.361.461-.029-.034-.517-.42-.277-.643-.413.078-.174.428-.002.423-.284.299.172.165.642.575.74-.249-.444.237-.428.336-.087-.25-.935.56-.961 1.537-.613-.152-.226-.192-.529-.345-.755-.373-.036-.281-.118-.75-.343-.018.246.216.327.413.428-.33.439-1.2.183-1.825.245.113-.581 1.061-.089 1.182-.657-.28.02-.56.04-.94-.07.04-.361.63-.018.343-.8.301.175.299.55.682.669-.05-.235.113-.2.05-.455.256.06.265.292.307.497.248.113.106-.276.46-.027-.362-.565.233-.48-.153-1.026.526.113.473.62.931.782-.01-.432.748-.415 1.029-.13.06-.56.515.024.634-.427.387.253-.079.218.077.512.608.192.59-.417 1.115-.329-.11-.364-.163-.476-.49-.938.247-.03.447-.43.094-.913.38.025.158.457.539.483.246.005.135-.447.55-.228.01-.376-.297-.504-.099-.641.415.19.237.78.51 1.067.092.358-.718-.438-.44.158.387.396.76.057.759-.372.338.056.35.328.644.41.012-.502.263-1.242.682-.883.168.033-.025-.221-.165-.313.14-.2.24-.452.797-.118-.15-.434.158-.28.007-.713.013.462-.954-.325-.757.374-.518-.355-.441-.69-1.04-.71-.188-.83.43-.221.547-.23-.147-.594-.47-.189-.788-.594.125.366.02.438-.318.213.138.444-.173.292.099.643.337.088.289-.258.624.281.008.25-.549-.22-.44.158-.374-.294-.235-.577-.665-.54.606.559-.248.143-.423.285-.092-.067-.34-.435-.305-.546-.263-.005-.862-.227-.926.108-.822-.66-.738.084-1.48-.553-.14.35.206.724-.095.91-.177-.116-.153-.368-.204-.568-.687-.434-.637.077-1.047 0 .11.297.237.36.395.3.214.557-.374.253-.007.711-.084-.073-.53-.537-.502-.227-.38-.279-.169-.256-.202-.57-.54-.141-.47.498-1.277.014.667 1.04-.741-.182-.344.797-.4-.613-.403-.076-.769-.468.14-.2.24-.45.795-.115-.433-.89.553-.602 1.222-.397-.176-.257-.35-.512-.383-.863-.063.945-2.503-.34-1.72 1.574-.407.133-.635.495-1.219.398.11.298.237.362.393.3l.117.77c-.056.133-.23.117-.46.028-.074-.405.337-.187.114-.784-.35-.14-.485-.002-.836-.142l.078.512c-.073.078-.198.09-.336.085-.274-.142-.317-.445-.346-.755-.522.1.492 1.038-.2.983a.76.76 0 0 0 .413.429c.018.23-.019.39-.172.399-.427-.952-1.414-.617-1.976-.785.132-.435 1.341-.403.765-1.083.306-.227.872-.12 1.093-.454-.38-.549-.505.102-.816-.016.054-.419.216-.214-.009-.84.758.716.38-.117 1.141.64-.001-.516-.387-.772-.74-1.052.072-.304.535.276.748.34-.047-.301.159-.279.01-.71.337.054.35.327.643.413-.123-.614.12-.112.442-.157.021-.453.45-.385.449-.868.383.068.309.45.557.613-.135.329-.954.211-.324.925.186-.037.053-.483.132-.657.111.115.224.228.395.3-.09-.562-.066-.626.402-.412.035-.543-.565-.654-.53-1.196.007-.094.105-.07.086-.201.383.119.401.484.577.741.488.35.309-.155.711.085.013-.196-.135-.286-.289-.37.14-.438 1.135.217.806-.824.822-.071.937-.771 1.91-.442-.19-.585.26-.355.382-.542-.29-.49-.44-.536-.492-.939-.567-.238-.475-.116-1.002-.455.24.53.243.346.368.881-.13.281-.614.107-.467.742-.402-.249-.306-.83-.532-1.196-.315-.153-.456.436-.835-.141-.464.093-.292 1-1.199.526-.014-.429.332-.4.345-.796-.205.012-.265.213-.713-.087.249.428.2.46-.21.142.114.936-1.07.208-1.282.726-.358-.042-.266-.387-.33-.626-.4-.24-.276.194-.565.098.352.272.62.607 1.163.77.132.147.224.32.309.498-.097.118-.295.105-.442.156-.204-.144-.168-.45-.537-.483-.013.243.136.378.2.568-.008.124-.233-.025-.21.144-.438-.31-.057-.293-.327-.629-.032-.348.57.112.402-.41-1.947.696-3.555 1.829-5.688 2.286.49.836-.345.796-.88.31.204.476.684.762.881 1.24-.153.395-.71-.369-.795.114-.149-.088-.14-.282-.182-.442-.348.069-.275.681-.719.624-.465-1.214-1.06-.132-2.06-.592-.069.328.312.356.535.486-.455.248-.346.02-.92.052.055.197.38.216.411.43-.056.133-.23.115-.46.025.127.196.216.42.22.698-.005.45-.54-.378-.422.283-.223-.132-.316-.352-.325-.628-.846.15-.963-.196-1.535.604-.16-.126-.28-.281-.306-.5-.073.873-.972.675-1.189 1.36-.12-.109-.24-.217-.288-.374-.21.11-.17.541-.079 1.04-.31-.072-.454-.258-.43-.558-.46.645-1.893.032-1.755 1.455l.008.048a1.71 1.71 0 0 1-.339 1.226l-.36.463c-.279.356-.674.557-1.111.631-.439.075-.88-.086-1.232-.333a1.33 1.33 0 0 1-.285-.281c-.128.288-.316.518-.746.539-.14-.094-.122-.295-.288-.373-.223-.119-.24.034-.478-.104.08.484.193.432.111.77a1.465 1.465 0 0 0-.64-.419c-.114.372-.464.435-.722.618-.307-.157-.088-.436.07-.326-.642-.436-.57.53-.295 1.177-.465-.066-.412-.475-.465-.815-.37.246-.148 1.263-.754 1.2-.214-.056-.259-.572-.004-.39-.34-.29-.632-.293-.883-.145.058-.084.22-.336-.18-.442.025-.175.375.073.173-.396-.438-.227-.344.242-.67.163.26.202.478.766.094.642h-.001l.005.01c.079.195.15.016.367.164-.043.17-.114.305-.14.498-.021.161-.012.363.076.669-.443-.083-.264-.574-.675-.678.075.404-.192.587.147 1.027-.538.182-1.251.27-1.413.653.162.22.389.399.34.757-.582-.422-.493-.9-1.029-.722-.148-.47.195-.3.28-.466-.388-.467-.43.402-.758.36.1.17.304.267.304.504-.32-.083-.33.132-.851-.282-.032.353.27.48.234.83-.11.164-.937-.618-.652.29-.29-.086-.302-.36-.639-.42-.066-.33.133-.312.298-.338-1.5-.402-2.06 1.33-3.225 1.713-.201-.243-.297-.552-.357-.886-.284.01-.247.44-.654.29.024.31.247.49.444.686-.454.323-1.996.005-1.518 1.555-.48-.32-.07-.451-.338-.758-.357.204-.41.283-.76.358.068.19.246.304.302.503-.207.41-1.612-.275-1.182.637-.292-.136-.397-.395-.762-.48-.074.215.103.762-.407.404.503 1.14-1.076.376-.97 1.335-.1-.213-.48-.244-.531-.492-.02.07-.036.144-.055.217-.08.32-.195.596-.81.212.08.317.048.483-.034.583-.109-.115-.219-.23-.388-.305.177.33-.11.519-.213.14.04.377-.285.498-.74.485.372.358.257.484.087.641-.147-.089-.136-.284-.176-.443-.375.03-.49.399-.866.427-.137-.59.344-.09.018-.711-.229.012-.498-.03-.548.22-.173-.122-.146-.371-.194-.572.197-.124.854.36.651-.29-.14.276-.613-.543-.723-.225-.386-.376-.216-.551-.108-.77.26.159.296.46.444.69.398.119.108-.401.017-.71.18-.111.231-.391.67-.16-.46.168.162.786-.23.848.161.406.46-.06.426.562.027.436-.397-.61-.37-.177.026.58.132.243.53.493-.04.087-.077.178-.213.14.491.193.763-.806 1.396-.775-.522-.467.117-.241-.214-.701-.228.188-.43.409-.458.86-1.074-1.16.088-1.343.086-1.875.746.21.729.92 1.328 1.23-.265-.367-.056-.327.116-.362.121-.025.224-.088.127-.36-.038.084-.17.146-.329.147-.222.003-.495-.117-.642-.49.136.076.223.106.28.109.266.013-.123-.59.48-.466.429.14.368.6.796.738l-.09-.642c-.175-.073-.348-.144-.39-.304.143-.79.771-.936 1.058-1.532-.495-.34-.397.103-.69.031.056-.512.396-1.11 1.095-.437-.193.024-.269.201-.141.65.21.393.342-.053.514.363.259-.315-.03-1.248.848-.554-.166-.463.134-.312.3-.337-.121-.154-.123-.385-.302-.502.631.064.791-1.044 1.555-.46.197-.193.3-.507.476-.73.128.148.22.321.301.5.348.063-.132-.446-.091-.64.452.17.563.564.712.934.366.004.507-.398 1.062.143-.216-.419-.704-.66-.75-1.19-.545-.062.501.895-.242.721-.351-.323-.44-.6-.358-.886.273-.441 1.37.2 1.57-.336.546.416.062.423.111.77.38.152.321-.272.386-.535-.11-.115-.22-.23-.39-.303.058-.2.357.085.069-.327.589.183.139-.999 1.112-.313-.292-.447.102-.807.527-.351-.444-.918.084-1.21.646-1.131.006-.19-.148-.275-.178-.443.514.13.606-.354 1.078.269l-.129-.898c.6.074.37.694.82.864-.066-.537.223-.61.615-.547-.205-.332-.224-.788-.396-1.143.432.276.316.913.856 1.12-.696-.91.018-1.31.646-1.132.131-.36-.334-.9.1-.908.242.338.337.855.534.489.27.242.338.617.378 1.012.109.073.11.005.105-.07l.036.017.213.1c-.021-.358-.336-.523-.36-.885.06-.456.598.317 1.1.396-.087-.494.51-.097.51-.478-.614-.386-.725-.115-.777.234-.168-.217-.46-.352-.765-.48.302-.055-.048-.455.548-.22.093-.342-.416-.286-.323-.628.58.304.987-.138 1.467-.27-.122-.283-.541-.09-.566.096-.63-.678-.039-.929.33-.92.501.341-.345.277.073.512.637.301-.046-.47.405-.409.38 1.099.707-.667 1.733-.025-.175-.465.052-.946.004-1.55.606.839.898-.456.804-.82.175.07.349.141.392.302-.137-.344.335-.166.24-.724.695.567.373-.236.594-.679.244.165.278.469.658.544.273-.931.962-.733 1.4-1.496.264.189.3.498.517.36-.569-.754.124-.555.668-.168-.548-.491-.52-1.127-.046-1.095.45.402-.33.224.095.64.226.12.24-.034.48.104-.11-.294-.412-.426-.201-.57.183.112.1.402.306.499.522.017.414-.333.133-.654.137-.337.454.586.623.29-.387-.432-.278-.74-.152-1.025.521.489.174-.096.726.217-.31-.4-.014-.541.28-.466.19.207-.024.185.305.498-.37-.637.95-.548.144-1.363.395.132-.053-.825.364-.664.468.307.048.401.258.952.308.02.344-.312.651-.295-.823-1.227.325-1.154.355-1.503.256.361.11.674.133.895-.203-.051-.25-.208-.286-.37-.396-.056.05.384-.135.652.442-.118.43-.3 1.313.248.048-.359-.362-.414-.45-.683.84.464 1.5-1.083 2.14-1.16.02-.11.15-.658-.24-.825-.05-.595.821.038.236-.726.35.14.368.505.576.742-.013.156-.296-.038-.48-.103.121.479.584.504.367.884.277-.172.105-.462.199-.98.11.111.221.224.393.299-.075-.435-.29-.154-.557-.613.021-.281.441-.052.256-.598-1.157.092-1.99.598-2.847 1.075-.378-.028-.158-.46-.536-.485-.197.135.034.314.097.638-.5-.227-.448-.826-.549-1.324.467-.275 1.622.22 1.738-.749.143-.124.594.147.69-.04-.473-.313-.384-.285.065-.326.036-.31-.287-.372-.328-.628.947.441.614-.163.984-.38.292.086.306.357.642.414-.338-.39-.385-.772.007-.71.291.086.02.551.433.555-.08-.24.06-.197.208-.143a1.184 1.184 0 0 1-.2-.568c.618-.093.898-.17 1.625.032-.528-.85.497-.045.36-.667.383.276-.111.249.1.64.173-.155.298-.37.65-.297.04-.155-.248-.73.027-.582-.446-.439-.342-.43-.388-1.01-.319.378-.945-.095-.964.51-.523-.288-.13-.416-.558-.613.003.42.207.708.492.938-.016.22-.22.199-.152.525-.49-.598-.586-.068-.667.171-.448-.31-.05-.501-.388-1.011-.261.059-.143.226-.026.583-.184-.105-.624-.364-.958-.202.197.244.208.611.263.954-.308-.264-.47-.626-.932-.786.075.37-.303.16-.42.284-.112-.256-.409-.385-.556-.613-.42.557-1.11.767-1.823.945.146.805-.808.194-.8.823-1.302-.59-.899 1.48-2.234.515.16.411-.125.252-.028.583-.415-.26-.565-.182-.85-.275.037-.369.506-.109.113-.78.297.558.31.148.601.16-.176-.48-.295-.241-.496-.229-.1-.61.343-.52.59-.68.238.12 0 .465-.17.397.463.422.608-.448.963-.507-.398-.272-.186.24-.583-.031.573-.21.395-.791.742-1.205.323.11-.008.663.45.685l-.079-.514c.753.067 1.043-.617 1.096-1.16.103.722.482.23.83.144-.156-.26-.195-.567-.412-.427-.186-.947.71.087.589-.679.367.176.507.504.702.798.254.042-.004-.735-.137-.897.039-.372 1.1.178.607-.551.096-.06.647-.044.728.215-.143-.577.346-1.08 1.114-1.034-.111.394-.146.293.033.966.339.093.62.11.958.202.068-.214-.673-.547-.308-.499-.283-.546-.229.173-.315.214-.52-.575-.23-1.402.55-.936.38-.197-.216-1.642.615-1.263l-.078-.51c.32.065.28.374.432.554.33.011-.032-.86.485-.61.383.277-.01.378.1.64.393-.645.65-1.39 1.592-.933.154-.145.388-.187.233-.726-.243-.07-.394-.202-.413-.424.566.31.654-.682 1.439-.413.068.324.12.63-.15.525.354.244.916-.125 1.232-.27-.12-.624-.183.12-.624-.283-.066-.428.336-.255.232-.727-.161-.126-.281-.28-.308-.496-.343-.167-.218.098-.499-.228.05-.073.098-.148.064-.326.818.519.745.278 1.33.367.184.574-.559-.031-.376.542.394.264.33-.054.726.211-.4-.296-.153-.92.07-1.036.149.087.141.281.185.44.488.349.304-.157.707.084-.056-.244-.434-.27-.539-.483.109-.575.842-.356 1.026-.838-.383-.488-.206.257-.564.099-.105-.07-.145-.185-.27-.242.408 0 .198-.407.337-.796-.427-.513-.548-.171-.292.343-.434-.08-.212-.719-.54-.484-.066-.394.221-.738-.39-1.007-.15.106-.033.362.308.497.004.14-.21.004-.355-.044-.027.35.204.525.248.825-.323.2-.765.25-.797.823-1.117-.673-.85.414-1.438.414-.56-.755.374-.667-.098-1.35-.347.69-1.21.275-1.275 1.436-.476-.298-.85-.573-.668.17-.456-.308-.746-.814-.639-1.122-.287-.198-.14.163-.333.084.345.24.251.775.723.925-.74-.23-.567.706-1.025.835.17-.714.158-1.323.237-1.433-.683-.564-.545.8-.735 1.206-.402-.462-.656-.082-.794.11.053.154.261.2.29.37-.01.093-.106.07-.085.199-.14-.142-.174-.352-.414-.426-.445.282-.582.958-.949 1.34-.104-.067-.144-.182-.268-.238.314-.51.21-.937.47-1.446-.694-.17-.77.446-1.317.463.14.42.247 0 .498.228.095.292-.032.3-.044.455-.453-.107-.65-.693-.893-.529.02.223.195.34.204.568.121.053.074-.11.085-.197.289.132.836.883.5.228.702.292.507.762.242.824.039-.462-.556-.125-.681-.668-.272-.075.1.674-.131.65-.43-.248-.25-.748-.14-.894-.062-.333-.512-.404-.576-.74-.375-.105-.235.451-.648.296-.31-.414-.016-.427-.263-.951-.605-.401-.24.443-.792.11.168.4.361 0 .746.344-.165.095-.267.27-.543.224.53.218.573.518.846.982-.007.093-.104.07-.085.199-.378-.027-.158-.456-.538-.486.246.759-1.324 1.143-1.793.361.126.433-.191.377.12.77-.494-.094-.526-.494-.91-.658.334-.082.301-.638.711-.622-.476-.301-1.119.064-1.314.462-.246-.115-.212-.422-.536-.485.001.436.021.91-.712.622.342.494.071.581.615.997-.467-.296-.192.44-.771.236.679.57-.21.57.158 1.024-.596-.022-.213-.703-.7-.8.136.485-.005.61-.254.596-.19-.203-.303-.456-.452-.683.347-.607 1.14-.608 1.175-1.357-.397-.272-.084.37-.583-.031.144 1.517-1.813.331-1.822 1.65-1.385-.48-1.832 1.323-2.92.544-.264.07-.476.206-.771.236.438.78-.316.514-.446.861-.14-.142-.173-.354-.412-.429.358.498-.002.766-.295.337-.098.654-.703.653-1.17.83a.98.98 0 0 0-.32.184c-.025.09-.057.18-.102.27.277.167.144.49.156.66-.184-.106-.17-.346-.222-.542-.04.067-.084.135-.135.201-.342.438-.771.625-1.197.635a.84.84 0 0 1-.115.116 1.45 1.45 0 0 0-.106-.127 1.772 1.772 0 0 1-.674-.228c-.16.083-.23.288-.116.532-.366-.27-.293.03-.6-.162.532 1.197-1.663.473-1.58 1.757-1.26-.723-.794 1.545-1.963.745.237 0 .282-.251.4-.405-.513-.432-.474.64-1.05.694-.235.023-1.27-.146-.859.428.062.287-.43-.147-.6-.163-.085.613-.702.53-.746 1.194-.709-.069-1.55.66-2.263 1.074-4.77 2.376-9.352 4.993-13.796 7.788C8.185 352.683-4.07 362.865-16.406 373c-.316-.12-.35-.426-.432-.698 1.769-.275 2.204-2.368 3.904-2.737-.195-.454-.09-.453.024-.709.188.147-.028.14.05.387.375.085.061-.766.636-.406-.027-.353-.406-.482-.45-.825 1.236.52 1.884-.398 2.226-1.416.686-.266 1.476-.394 1.665-1.335.14.05.22.134.262.248.49-1.195 2.278-1.416 2.304-2.578.334.154.276.337.491.243-.039-.16-.238-.219-.384-.31 1.612-.215 1.631-2.057 3.391-2.163-.36-.691.657-.534.936-.739.468-.342.325-1.209.917-.866.106-.7.494-1.018 1.269-.817.096-.34-.41-.292-.314-.632-.104-.225.419.014.486.185-.051-.614.516-.395.57-.865.204.057.246.213.281.377-.012-.751.6-.663.76-1.184.572.677.084.055.598.172-.181-.244-.222-.55-.087-.64.124.153.298.274.51.368-.294-.877.936-.271.848-1.378.21.095.331.25.404.434.433-.643 1.989-1.44 1.799-1.99.232-.319 1.005.088.81-.803.62.244 1.326.139 1.09-.426 2.177-1.035 3.534-2.806 5.783-3.89.005-.19-.147-.274-.177-.443.366.162.344.024.827.161.594-1.326 2.841-1.315 3.438-2.995-.983-.327-1.71-1.521-.882-2.58.977-1.254 2.672-.464 2.952.715h.016c.254.202.244.674-.003.61-.01.047-.022.095-.036.142.24.286.664.11.341-.248.294.063.507.02.68-.074.531-.29.685-1.078 1.603-.861-.35-.745.246-.842.966-.491.014-.196-.132-.288-.284-.375.824-.089 1.227-.734 2.072-.797-.068-.189-.247-.305-.302-.502 1.086-.261 1.737-1.721 3.037-1.29-.02-.126-.165-.17-.264-.245 1.064-.466 1.75-1.429 3.117-1.498.34-.872 1.741-1.23 2.625-1.736.033-.348-.377-.405-.343-.754.039-.089.075-.178.21-.14.593 1.162 1.01.04 1.516.123-.293-.57-.308.064-.602-.168-.397-.332.017-.444.03-.579 1.277.967 1.397-.253 2.289-.11.034-.35-.377-.406-.342-.755.01-.124.232.03.208-.14.175.12.153.37.201.57.345.142.496.027.401-.405-.137-.19-.464-.255-.427-.557-.249-.116-.107.274-.459.021-.118-.497.452-.098.238-.72.594.431.567.051.811.027.401.43-.42.13-.258.59.817.393.04.334.095.639 1.02.327.383-.401 1.23-.252-.054-.246-.43-.275-.533-.49-.014-.121.137-.027.23-.01-.11-.298-.235-.362-.392-.302-.141-.699.275-.674.144-1.358.307.08.409.035.637.418.223-.157-.143-1.08.325-.916.265.104.125.48.22.696.37.14.15-.428-.096-.638-.062-.391.605.169.542-.221.203.145.167.451.535.488-.313-.87.35-1.581.903-.883.182-.21.662-.032.464-.735.863.554.602-.607 1.268 0-.588-1.296 1.42-.063 1.198-1.222.625-.046.834-.632 1.525-.593.347.162-.245.208.285.37.023-1.34 1.649-.605 1.952-1.582-.225-.12-.24.034-.478-.104-.14-.095-.124-.295-.288-.373.38-.126 1.039.111 1.374-.071-.125-.269-.23-.124-.372-.174-.355-.272.294-.083.026-.58.207.234.335.294.496.232-.55-1.237 1.11-.198.97-1.21a.988.988 0 0 1 .287.144c.189.137.285.336.289.597.398.242.274-.19.56-.095-.064-.19-.327-.249-.516-.357-.165-.487.054-.477.13-.653.223.132.317.351.328.627.087-.602.7-.53 1.024-.83.203.144.168.452.536.485-.544-1.1 1.081-1.194 1.094-1.867.474.375.795-.027.786.602.301-.054.122-.32-.1-.64.168-.212.966.697.934.075-.352-.247-.21.14-.455.028a.376.376 0 0 0-.166-.314c.548-.319 1.482-.14 1.422-1.24.389.523.38.429.93.784-.057-.385-.486-.519-.804-.726-.313-.944.906.073.689-.75.585.124.4.768.845.982-.073-.465-.442-.734-.635-1.122-.063-.469.484.217.458-.025.175.118.152.366.204.569.283.005.356-.458.003-.71.854.374.405-.183 1.205.318.054-.598.198-.477.731-.494-.147-.276-.53-.394-.472-.809l-.624-.287c-.2.115.288.544-.313.21-.012.197.135.287.288.37-.345.19-1.187 1.08-1.725.035-.272-.145.014.428-.025.58-.473-.255-.571-.66-.492-.937-.199-.041-.69.371-.13.65-.113.298-.657.04-.461.735-.264-.151-.122-.576-.349-.753-.472-.25-.443.83-.934-.076-.303-.127.039.411.184.441-.174.15-.39.249-.79.108.07.189.25.303.308.499.003.242-.296.096-.294.338a2.048 2.048 0 0 1-.307-.498c-.155.687-.637.953-1.213 1.1-.324-.18.137-.141-.08-.512-.072-.032-.123-.035-.163-.025-.157.042-.13.32-.522.064.07.743-.965-.566-.893.179.173.018.283-.045.455-.028.24.583-.366.073-.128.654-.256-.065-.266-.293-.307-.499-.114.024-.083.235-.333.083.41.693-.778.931-1.336 1.041a.732.732 0 0 1-.112-.113c-.53.5-1.147.889-1.934 1.057-.174-.118-.152-.367-.203-.568-.585-.314-.249.44-.006.708-.227.318-.426-.546-.888-.532-.124.408.543.294.555.615-.458.261-.453 1.121-1.38.777.35.759-.078.588-.197.976-.333-.057-.349-.33-.64-.418-.022.62-.431.74-.778.942-.349-.297.092-.417.152-.522-.512-.232-.7.297-.674.87-.368-.082-.292-.461-.66-.544-.094-.405.322-.311.009-.71-.685.41-.924.952-1.1 1.86-.508-.082-.246-.68-.697-.802-.516.425-.982.917-1.958.746.193.793-.39.417-.628.415.041.257.362.323.326.63-.881-.344-1.042 1.298-1.768.475-.568.538-1.91.589-1.973 1.443-.735-.305-.631.483-1.496.006.18.681-.408.36-.181 1.103-.334-.06-.349-.333-.64-.422-1.231.795-2.275 1.836-3.95 2.052.124.21.175.444.3.46l.109-.03a.158.158 0 0 1-.11.03c-1.224.334-2.382.753-3.07 1.791-.064.398-.833-.128-1.02.108.051.153.26.204.286.374-.46.015-1.035.046-1.156.755l-.74-.354c-.683 1.207-2.013 1.562-3.275 2.004.04.115.142.186.16.315-.566.215-1.09.489-1.59.793-1.4.85-2.621 1.936-4.114 2.662.165.772-1.509 1.084-2.3 1.628-.43.296-.494.88-1.176.622l.072.513c-.736-.547-.485.705-1.335.306-.148.501-.54.809-.994 1.079a1.576 1.576 0 0 1-.36.972c-.588.755-1.438.768-2.081.402-.875 1.426-2.703 1.579-3.48 3.137-1.025-.189-.918 1.14-1.934.965.065.784-.779.35-.774 1.055-1.257.267-2.06 1.145-2.815 2.085-2.27 1.282-3.861 3.477-6.133 4.756l.068.513c-.02.157-.215-.097-.262-.25-.888 1.104-1.744 1.626-2.62 2.775l-.488-.243c-.17.206.434.745-.145.647-.19-.146.026-.14-.05-.383-.23-.02-.383.228-.163.517a79.174 79.174 0 0 0-4.703 3.748l.399.308c.357.275.557.668.631 1.103.074.436-.09.874-.34 1.225-.24.34-.703.58-1.11.632a1.726 1.726 0 0 1-1.23-.334l-.465-.358a1.587 1.587 0 0 1-.36-.391c-4.877 4.434-9.42 9.223-14.396 13.625l5.078 18.95c.172.235.289.524.322.79.016.13.013.265-.004.398l6.75 25.187c.338.354.218-.368.77-.1z"/>
        </g>
        <path fill="#FFF" fill-rule="nonzero" d="M959.435 318.787c-2.788.747-5.674-.984-6.446-3.865-.772-2.881.862-5.823 3.65-6.57 2.787-.746 5.673.984 6.445 3.865.768 2.88-.865 5.819-3.65 6.57zm-2.404-8.972c-2.007.538-3.182 2.654-2.627 4.728.556 2.073 2.632 3.319 4.639 2.781 2.006-.537 3.182-2.654 2.626-4.728-.56-2.07-2.633-3.314-4.638-2.78z"/>
        <ellipse cx="942.303" cy="293.762" fill="#FED951" fill-rule="nonzero" rx="3.492" ry="3.593" transform="rotate(-15 942.303 293.762)"/>
        <path fill="#FFF" d="M930.105 94.08c-5.215 1.092-11.093-.365-16.814-4.219-7.74-5.214-16.25-6.683-23.353-4.031-7.1 2.652-12.12 9.175-13.772 17.896-.1.533.03 1.07.366 1.514.336.444.84.739 1.415.833a2.323 2.323 0 0 0 1.639-.338c.48-.311.799-.777.9-1.31 1.405-7.42 5.346-12.688 11.095-14.836 5.75-2.147 12.544-.886 19.128 3.55 7.74 5.212 16.25 6.682 23.353 4.03 7.1-2.653 12.12-9.175 13.772-17.896.193-1.018-.468-2.003-1.538-2.294a2.343 2.343 0 0 0-.245-.052c-1.19-.193-2.328.546-2.537 1.647-1.404 7.42-5.345 12.688-11.095 14.835-.755.282-1.527.505-2.314.67m-37.932-11.92c7.326-1.534 15.51.34 22.963 5.361 5.678 3.826 11.398 4.963 16.11 3.204 4.71-1.758 7.971-6.25 9.183-12.65.506-2.674 3.273-4.468 6.164-4 .198.032.394.075.584.126 2.602.705 4.21 3.101 3.742 5.573-1.842 9.727-7.558 17.046-15.685 20.08-8.125 3.035-17.737 1.441-26.37-4.375-5.679-3.825-11.4-4.962-16.11-3.204-4.71 1.76-7.971 6.253-9.182 12.65-.246 1.296-1.022 2.425-2.186 3.18a5.633 5.633 0 0 1-3.978.82c-1.4-.225-2.622-.943-3.44-2.02-.817-1.076-1.132-2.382-.887-3.678 1.842-9.727 7.559-17.046 15.684-20.081a23.559 23.559 0 0 1 3.408-.986"/>
        <path fill="#FED951" d="M917.105 59.08c-5.215 1.092-11.093-.365-16.814-4.219-7.74-5.214-16.25-6.683-23.353-4.031-7.1 2.652-12.12 9.175-13.772 17.896-.1.533.03 1.07.366 1.514.336.444.84.739 1.415.833a2.323 2.323 0 0 0 1.639-.338c.48-.311.799-.777.9-1.31 1.405-7.42 5.346-12.688 11.095-14.836 5.75-2.147 12.544-.886 19.128 3.55 7.74 5.212 16.25 6.682 23.353 4.03 7.1-2.653 12.12-9.175 13.772-17.896.193-1.018-.468-2.003-1.538-2.294a2.343 2.343 0 0 0-.245-.052c-1.19-.193-2.328.546-2.537 1.647-1.404 7.42-5.345 12.688-11.095 14.835-.755.282-1.527.505-2.314.67m-37.932-11.92c7.326-1.534 15.51.34 22.963 5.361 5.678 3.826 11.398 4.963 16.11 3.204 4.71-1.758 7.971-6.25 9.183-12.65.506-2.674 3.273-4.468 6.164-4 .198.032.394.075.584.126 2.602.705 4.21 3.101 3.742 5.573-1.842 9.727-7.558 17.046-15.685 20.08-8.125 3.035-17.737 1.441-26.37-4.375-5.679-3.825-11.4-4.962-16.11-3.204-4.71 1.76-7.971 6.253-9.182 12.65-.246 1.296-1.022 2.425-2.186 3.18a5.633 5.633 0 0 1-3.978.82c-1.4-.225-2.622-.943-3.44-2.02-.817-1.076-1.132-2.382-.887-3.678 1.842-9.727 7.559-17.046 15.684-20.081a23.559 23.559 0 0 1 3.408-.986"/>
    </g>
</svg>
