<svg xmlns="http://www.w3.org/2000/svg" xmlns:xlink="http://www.w3.org/1999/xlink" width="1023" height="757" viewBox="0 0 1023 757">
    <defs>
        <path id="a" d="M0 0h1024v757H0z"/>
        <linearGradient id="c" x1="50%" x2="50%" y1="100%" y2="0%">
            <stop offset="0%" stop-color="#FAFFF2"/>
            <stop offset="100%" stop-color="#EE3124"/>
        </linearGradient>
        <linearGradient id="d" x1="50%" x2="50%" y1="100%" y2="0%">
            <stop offset="0%" stop-color="#FAFFF2"/>
            <stop offset="100%" stop-color="#EE3124"/>
        </linearGradient>
        <linearGradient id="e" x1="50%" x2="50%" y1="100%" y2="0%">
            <stop offset="0%" stop-color="#FAFFF2"/>
            <stop offset="100%" stop-color="#EE3124"/>
        </linearGradient>
        <linearGradient id="f" x1="50%" x2="50%" y1="100%" y2="0%">
            <stop offset="0%" stop-color="#FAFFF2"/>
            <stop offset="100%" stop-color="#EE3124"/>
        </linearGradient>
    </defs>
    <g fill="none" fill-rule="evenodd" transform="translate(-1)">
        <mask id="b" fill="#fff">
            <use xlink:href="#a"/>
        </mask>
        <use fill="#FFF" xlink:href="#a"/>
        <g mask="url(#b)" opacity=".153">
            <path fill="url(#c)" d="M460.5 151.404c131.147 0 248.227 67.965 351.24 203.896 25.087 33.103 60.84 91.828 107.26 176.174H2c126.611-253.38 279.445-380.07 458.5-380.07z" transform="translate(0 528)"/>
            <path fill="url(#d)" d="M1022 .762v573.134H329C520.367 191.806 751.367.762 1022 .762z" transform="translate(0 528)"/>
            <path fill="url(#e)" d="M1.359 132.358c145.776 0 275.915 74.932 390.417 224.795C419.662 393.65 459.403 458.394 511 551.386H0l1.359-419.028z" transform="translate(0 528)"/>
            <path fill="url(#f)" d="M0 249.954c512 278.923 512-185.181 1024-81.387v360.31H0V249.954z" transform="translate(0 528)"/>
        </g>
    </g>
</svg>
