<svg xmlns="http://www.w3.org/2000/svg" width="47" height="56" viewBox="0 0 47 56">
    <g fill="none" fill-rule="nonzero">
        <path fill="#DE1E1E" d="M12.353 24L0 47.195l11.218-1.033L16.647 56 29 32.805z"/>
        <g fill="#EE3124">
            <path d="M13.587 49.23c.339-.741-.016-1.626-.726-2.01l-.696-.376a1.527 1.527 0 0 1-.581-2.024 1.48 1.48 0 0 1 2.013-.628l1.966 1.061c.608.328 1.37.09 1.683-.531l.048-.095c.36-.586.148-1.36-.451-1.682l-5.882-3.172c-.717-.387-1.068-1.269-.734-2.011a1.48 1.48 0 0 1 2.05-.697l5.455 2.943c.608.328 1.37.09 1.692-.527l.03-.081.01-.018a1.34 1.34 0 0 0-.539-1.807l-3.06-1.65c-.717-.387-1.068-1.269-.73-2.02.366-.781 1.3-1.102 2.05-.697l3.381 1.825c.632.341 1.387.056 1.714-.592.005-.008.005-.008.008-.017.006-.009.006-.009.009-.018.344-.638.154-1.434-.48-1.773l-3.647-1.967c-.708-.382-1.06-1.264-.725-2.006a1.48 1.48 0 0 1 2.05-.697l8.997 4.854-12.09 23.155-3.333-6.156c.215-.148.402-.331.518-.586z"/>
            <path d="M34.819 24.027L46.91 47.182 35.93 46.15l-5.314 9.82-12.09-23.154z"/>
        </g>
        <path fill="#DE1E1E" d="M33.586 49.3c-.332-.735.016-1.614.71-1.996l.68-.374c.682-.4.94-1.29.57-2.01a1.437 1.437 0 0 0-1.97-.624l-1.924 1.054c-.594.326-1.34.09-1.646-.527l-.048-.095a1.205 1.205 0 0 1 .442-1.67l5.757-3.154c.702-.384 1.045-1.26.719-1.998-.361-.784-1.272-1.094-2.006-.692l-5.338 2.924a1.21 1.21 0 0 1-1.655-.524l-.03-.08-.01-.018a1.34 1.34 0 0 1 .528-1.795l2.994-1.64c.701-.384 1.045-1.26.713-2.006-.357-.776-1.272-1.094-2.005-.692l-3.311 1.816c-.619.339-1.357.056-1.677-.587l-.009-.018-.008-.017c-.337-.635-.15-1.425.469-1.762L29.1 30.86c.692-.38 1.036-1.255.71-1.993-.361-.785-1.273-1.094-2.006-.692L19 32.998 30.83 56l3.261-6.116a1.44 1.44 0 0 1-.505-.583z"/>
        <ellipse cx="24" cy="20.5" fill="#FED951" rx="20" ry="20.5"/>
        <path fill="#F2D35F" d="M25.93 18.208H13.66c-.953 0-1.736-.81-1.736-1.795l.013-.123v-.028c-.013-1.04.808-1.89 1.817-1.89h8.503c1.126 0 2.121-.863 2.188-2.028.053-1.219-.888-2.247-2.069-2.247H13.37c-.994 0-1.737-.862-1.724-1.89v-.028-.027c-.013-1.027.729-1.891 1.724-1.891h9.425c1.113 0 2.109-.862 2.175-2.014C25.022 3.015 24.08 2 22.9 2h-6.902C8.96 4.998 4 12.149 4 20.503 4 28.857 8.96 36.006 16 39h8.763c1.113 0 2.109-.862 2.175-2.014.053-1.232-.888-2.245-2.069-2.245l-9.969-.002c-1.176 0-2.123-1.016-2.06-2.247.058-1.152 1.06-2.017 2.176-2.017h3.865c1.111-.033 2.009-.974 2.009-2.13 0-1.178-.927-2.138-2.069-2.138h-5.859c-.953 0-1.736-.808-1.723-1.795v-.15c-.066-.972.69-1.795 1.63-1.795h12.94c1.127 0 2.123-.862 2.189-2.014.053-1.23-.89-2.245-2.069-2.245z"/>
        <path fill="#FFDD7A" d="M23.5 35C15.504 35 9 28.494 9 20.5 9 12.504 15.504 6 23.5 6S38 12.506 38 20.5C38 28.496 31.496 35 23.5 35z"/>
        <path fill="#FFF" d="M38 20.634C38 12.826 31.805 6.44 24.03 6h-1.381c-.911 0-1.724.676-1.78 1.578a1.686 1.686 0 0 0 1.693 1.762l8.155.002c.962 0 1.736.796 1.684 1.761-.048.904-.866 1.582-1.78 1.582h-3.162a1.683 1.683 0 0 0-1.643 1.67c0 .924.76 1.676 1.691 1.676H32.3c.781 0 1.42.634 1.409 1.406v.116c.053.763-.564 1.406-1.334 1.406H21.79c-.921 0-1.734.676-1.79 1.578a1.686 1.686 0 0 0 1.693 1.762h10.033c.781 0 1.42.634 1.42 1.405l-.01.097v.021c.01.816-.663 1.482-1.486 1.482h-6.956c-.922 0-1.735.676-1.79 1.589a1.692 1.692 0 0 0 1.692 1.762h7.367c.813 0 1.42.676 1.409 1.481v.042c.01.805-.596 1.482-1.41 1.482h-7.708c-.91 0-1.724.676-1.779 1.578A1.685 1.685 0 0 0 24.168 35h2.034C32.932 33.612 38 27.698 38 20.634z" opacity=".2"/>
        <path fill="#EC9922" d="M33.068 16.657h-7.014l-2.17-6.984a.919.919 0 0 0-1.77 0l-2.167 6.984h-7.014c-.902 0-1.277 1.208-.547 1.763l5.674 4.317-2.167 6.984c-.279.897.703 1.643 1.433 1.089L23 26.493l5.675 4.317c.73.554 1.711-.192 1.433-1.09l-2.167-6.983 5.674-4.317c.729-.555.355-1.763-.547-1.763z"/>
    </g>
</svg>
