<svg xmlns="http://www.w3.org/2000/svg" width="16" height="16" viewBox="0 0 16 16">
    <g fill="none" fill-rule="nonzero">
        <circle cx="8" cy="8" r="8" fill="#F0F0F0"/>
        <g fill="#0052B4">
            <path d="M2.055 3.515A7.885 7.885 0 0 0 .692 6.27h4.117L2.055 3.515zM15.975 6.269a7.886 7.886 0 0 0-1.364-2.754L11.858 6.27h4.117zM.692 10.398a7.886 7.886 0 0 0 1.363 2.754l2.754-2.754H.692zM13.152 2.055A7.886 7.886 0 0 0 10.398.692v4.117l2.754-2.754zM3.515 14.611a7.886 7.886 0 0 0 2.754 1.364v-4.117L3.515 14.61zM6.269.692a7.886 7.886 0 0 0-2.754 1.363L6.27 4.81V.692zM10.398 15.975a7.886 7.886 0 0 0 2.754-1.364l-2.754-2.753v4.117zM11.858 10.398l2.753 2.754a7.885 7.885 0 0 0 1.364-2.754h-4.117z"/>
        </g>
        <g fill="#D80027">
            <path d="M15.932 6.957H9.044V.067a8.08 8.08 0 0 0-2.087 0v6.89H.067a8.08 8.08 0 0 0 0 2.086h6.89v6.89a8.08 8.08 0 0 0 2.086 0v-6.89h6.89a8.08 8.08 0 0 0 0-2.086z"/>
            <path d="M10.087 10.087l3.57 3.57a8.02 8.02 0 0 0 .47-.514l-3.056-3.056h-.984zM5.913 10.087l-3.57 3.57c.164.164.336.32.514.47l3.056-3.056v-.984zM5.913 5.913l-3.57-3.57a8.02 8.02 0 0 0-.47.514l3.056 3.056h.984zM10.087 5.913l3.57-3.57a8.01 8.01 0 0 0-.514-.47l-3.056 3.056v.984z"/>
        </g>
    </g>
</svg>
