<svg xmlns="http://www.w3.org/2000/svg" width="16" height="16" viewBox="0 0 16 16">
    <path fill="#4B4D4F" fill-rule="nonzero" d="M.236 6.074a8.006 8.006 0 0 0 0 3.852 7.964 7.964 0 0 0 2.246 3.854 7.984 7.984 0 0 0 4.961 2.185c.184.022.37.035.557.035.188 0 .373-.013.557-.035a7.983 7.983 0 0 0 4.96-2.185 7.964 7.964 0 0 0 2.247-7.706 7.964 7.964 0 0 0-2.246-3.854A7.985 7.985 0 0 0 8.212.019 1.376 1.376 0 0 0 8 0c-.065 0-.134.006-.212.019a7.985 7.985 0 0 0-5.306 2.2A7.964 7.964 0 0 0 .236 6.075zM11.2 7.103c-.004-.094-.011-.187-.017-.28-.01-.159-.016-.317-.029-.474h2.328a10.023 10.023 0 0 1 .003 3.302h-2.331c.013-.157.02-.315.03-.473.005-.094.012-.187.016-.28a20.33 20.33 0 0 0 0-1.795zm-.088-1.198l-.026-.217-.02-.169a17.294 17.294 0 0 0-.053-.38l-.016-.11a16.154 16.154 0 0 0-.083-.48l-.015-.074c-.025-.13-.052-.259-.08-.386-.01-.049-.022-.097-.034-.146-.023-.1-.047-.2-.072-.297l-.043-.16a12.147 12.147 0 0 0-.206-.68l-.05-.15-.019-.053h1.52c.689.899 1.206 2.031 1.481 3.302h-2.284zm-.293 6.006c.028-.127.055-.256.08-.386l.015-.074c.03-.157.057-.318.083-.48l.016-.11c.019-.125.037-.252.053-.38l.02-.169.026-.217H13.4c-.272 1.27-.786 2.402-1.47 3.302h-1.535l.019-.054.05-.148a10.723 10.723 0 0 0 .206-.68c.015-.054.03-.107.043-.161.025-.098.05-.197.072-.297l.034-.146zm.743 1.93c-.649.716-1.42 1.24-2.262 1.509l.048-.05.011-.015c.04-.045.08-.092.12-.142l.042-.054.087-.118.047-.069.079-.117.048-.08c.025-.04.05-.08.074-.123l.048-.086.07-.13.048-.095a6.911 6.911 0 0 0 .177-.38l.022-.05h1.341zm-.472 1.04c.379-.296.73-.645 1.05-1.04h.636a7.542 7.542 0 0 1-1.686 1.04zm2.184-1.484h-.8c.645-.927 1.124-2.054 1.38-3.302h1.404a7.525 7.525 0 0 1-1.984 3.302zM15.554 8c0 .554-.06 1.109-.182 1.65h-1.436a10.446 10.446 0 0 0-.003-3.3h1.439c.121.541.183 1.096.183 1.65zm-.296-2.095H13.85c-.259-1.249-.741-2.376-1.388-3.302h.812a7.525 7.525 0 0 1 1.984 3.302zm-2.482-3.747h-.65a6.553 6.553 0 0 0-1.088-1.06 7.54 7.54 0 0 1 1.738 1.06zm-1.231 0h-1.324L10.2 2.11a7.813 7.813 0 0 0-.177-.38l-.048-.096a6.079 6.079 0 0 0-.07-.13l-.048-.086a5.258 5.258 0 0 0-.074-.124l-.048-.079-.079-.117-.047-.07-.087-.117-.042-.054C9.44.807 9.4.76 9.36.715L9.348.7 9.324.676c.826.269 1.582.783 2.221 1.482zM8.223.474l.014.003c.06.015.119.035.178.061l.028.014c.06.028.121.06.181.1l.01.007c.059.04.117.086.175.136l.023.019c.057.051.113.108.17.17l.03.034c.055.062.11.13.164.202.01.012.018.025.027.038.056.076.11.156.164.242l.012.02c.052.085.103.175.153.268l.02.038a6.442 6.442 0 0 1 .162.332H8.223V.474zm0 2.129h1.695l.056.15.054.148c.028.082.054.166.081.25l.046.147c.03.098.058.2.085.301l.032.113c.036.14.071.284.104.43.01.042.017.086.026.128.023.106.046.213.067.322l.033.184c.016.094.033.187.048.282.011.068.02.137.03.206a16.858 16.858 0 0 1 .066.494l.016.147h-2.44V2.603zm0 3.746h2.48c.014.159.025.319.034.48.006.095.014.19.018.287a19.885 19.885 0 0 1 0 1.768c-.004.096-.012.192-.018.288-.01.16-.02.32-.033.479H8.223V6.349zm0 3.746h2.44l-.017.147a17.625 17.625 0 0 1-.065.494l-.03.206-.05.282c-.01.061-.02.123-.032.184-.021.11-.044.216-.067.322l-.026.127c-.033.147-.068.29-.104.43-.01.04-.021.076-.032.114-.027.102-.055.203-.085.301l-.046.147c-.027.084-.053.168-.081.25l-.054.148-.056.15H8.223v-3.302zm0 3.747h1.511a6.424 6.424 0 0 1-.161.332l-.02.038c-.051.093-.102.183-.154.268l-.012.02a4.077 4.077 0 0 1-.164.242l-.027.038c-.054.072-.109.14-.164.202l-.03.034a2.394 2.394 0 0 1-.17.17l-.023.019c-.058.05-.116.096-.175.136l-.01.007c-.06.04-.12.072-.18.1l-.03.014a1.119 1.119 0 0 1-.177.06l-.014.004v-1.684zM.445 8c0-.554.062-1.109.183-1.65h1.44a10.442 10.442 0 0 0-.004 3.3H.628A7.557 7.557 0 0 1 .445 8zm.297 2.095h1.404c.256 1.248.735 2.375 1.38 3.302h-.8a7.525 7.525 0 0 1-1.984-3.302zM5.18 4.09c-.028.127-.055.256-.08.386l-.015.074c-.03.157-.057.318-.083.48l-.016.11c-.019.125-.037.252-.053.38l-.02.169-.026.217H2.604c.275-1.27.792-2.403 1.48-3.302h1.52l-.018.054-.05.148a10.723 10.723 0 0 0-.206.68c-.015.054-.03.107-.043.161-.025.098-.05.197-.072.297l-.034.146zm.106 8.265l.043.16a12.147 12.147 0 0 0 .206.68l.05.15.019.053H4.07c-.684-.9-1.198-2.033-1.47-3.302h2.288l.026.217.02.169c.016.128.034.255.053.38l.016.11c.026.162.053.323.083.48l.015.074c.025.13.052.259.08.386.01.049.022.097.034.146.023.1.047.2.072.297zm-.441-6.005c-.013.157-.02.315-.03.473-.005.094-.012.187-.016.28A20.33 20.33 0 0 0 4.779 8c0 .3.008.6.02.897.005.094.012.187.018.28.01.159.016.317.029.474h-2.33a10.026 10.026 0 0 1 .002-3.302h2.328zm-1.622 7.493h.636c.32.394.671.743 1.05 1.04a7.542 7.542 0 0 1-1.686-1.04zm1.214 0h1.34l.023.048a7.813 7.813 0 0 0 .177.38l.048.096.07.13.048.087a5.2 5.2 0 0 0 .074.122l.048.08.079.117.047.07.087.117.042.054c.04.05.08.097.12.142l.011.014.048.05c-.843-.268-1.613-.792-2.262-1.507zm3.34 1.684l-.015-.003a1.119 1.119 0 0 1-.178-.061l-.028-.014a1.394 1.394 0 0 1-.181-.1l-.01-.007a1.813 1.813 0 0 1-.175-.136l-.023-.019a2.394 2.394 0 0 1-.17-.17l-.03-.034a3.143 3.143 0 0 1-.164-.202c-.01-.012-.018-.025-.027-.038a4.068 4.068 0 0 1-.164-.242l-.011-.02a5.164 5.164 0 0 1-.154-.268l-.02-.038a6.44 6.44 0 0 1-.162-.332h1.511v1.684zm0-2.129H6.081l-.056-.15-.054-.148a10.271 10.271 0 0 1-.081-.25l-.046-.147c-.03-.098-.058-.2-.085-.301l-.032-.113c-.036-.14-.071-.284-.104-.43-.01-.042-.017-.086-.026-.128a14.444 14.444 0 0 1-.067-.322l-.033-.184a15.68 15.68 0 0 1-.048-.282c-.011-.068-.02-.137-.03-.206a16.858 16.858 0 0 1-.066-.494l-.016-.147h2.44v3.302zm0-3.746H5.295a19.368 19.368 0 0 1-.033-.48c-.006-.095-.014-.19-.018-.287a19.885 19.885 0 0 1 0-1.768c.004-.096.012-.192.018-.288.01-.16.02-.32.033-.479h2.481v3.302zm0-3.746h-2.44l.016-.147a17.625 17.625 0 0 1 .065-.494l.03-.206.05-.282c.01-.061.02-.123.032-.184.021-.11.044-.216.067-.322l.026-.127c.033-.147.068-.29.104-.43.01-.04.021-.076.032-.114.027-.102.055-.203.085-.301l.046-.147c.027-.084.053-.168.081-.25l.054-.148.056-.15h1.695v3.302zM6.803 1.22c.054-.072.109-.14.164-.202l.03-.034c.057-.062.113-.119.17-.17l.023-.019c.058-.05.116-.096.175-.136l.01-.007c.06-.04.12-.072.18-.1l.03-.014c.058-.026.117-.046.177-.06l.014-.004v1.684H6.266a6.42 6.42 0 0 1 .161-.332l.021-.038c.05-.094.101-.184.154-.268l.01-.02c.055-.086.11-.166.165-.242l.027-.038zM6.652.7l-.011.015c-.04.045-.08.092-.12.142l-.042.054-.087.118-.047.069-.079.117-.048.08a5.2 5.2 0 0 0-.074.122l-.048.087a6.015 6.015 0 0 0-.07.13l-.048.095a6.911 6.911 0 0 0-.177.38l-.022.05H4.455c.64-.7 1.395-1.214 2.22-1.483l-.023.025zm-1.69.397c-.393.3-.757.657-1.087 1.061h-.65a7.54 7.54 0 0 1 1.737-1.06zM3.538 2.603c-.647.926-1.13 2.053-1.388 3.302H.742a7.525 7.525 0 0 1 1.984-3.302h.812z"/>
</svg>
