<svg xmlns="http://www.w3.org/2000/svg" width="16" height="16" viewBox="0 0 16 16">
    <g fill="none" fill-rule="nonzero">
        <path fill="#CD2029" d="M10.769 7.987H16C16 3.576 12.275 0 7.68 0c2.297 0 3.089 3.993 3.089 7.987z"/>
        <path fill="#CD2029" d="M0 7.987h11.52C11.52 3.993 10.395 0 8.146 0 3.647 0 0 3.576 0 7.987z"/>
        <path fill="#F3F4F5" d="M7.68 15.974c4.595 0 8.32-3.576 8.32-7.987h-5.407c0 3.994-.615 7.987-2.913 7.987z"/>
        <path fill="#F3F4F5" d="M11.52 7.987H0c0 4.411 3.647 7.987 8.146 7.987 2.25 0 3.374-3.993 3.374-7.987z"/>
    </g>
</svg>
